<svg xmlns="http://www.w3.org/2000/svg" viewBox="0 0 360 72" role="img" aria-label="Glenview Exterior Cleaning">
  <defs>
    <linearGradient id="g" x1="0%" y1="0%" x2="100%" y2="100%">
      <stop offset="0%" style="stop-color:#60a5fa"/>
      <stop offset="100%" style="stop-color:#2563eb"/>
    </linearGradient>
  </defs>
  <rect x="2" y="8" width="56" height="56" rx="12" fill="url(#g)"/>
  <path fill="#fff" d="M14 22h9v3h-6v4h6v3h-6v8h-3V22zm15-3h9c3.3 0 6 2.7 6 6 0 2.5-1.5 4.8-3.8 5.6L44 54h-4.8l-3.1-7.9h-2.3V54H29V19zm0 12.3h5.2c1.5 0 2.7-1.2 2.7-2.7s-1.2-2.6-2.7-2.6H29v5.3z"/>
  <text x="72" y="48" font-family="system-ui,-apple-system,'Segoe UI',sans-serif" font-size="28" font-weight="800" fill="#0f172a">Glenview</text>
  <text x="72" y="66" font-family="system-ui,-apple-system,'Segoe UI',sans-serif" font-size="14" font-weight="600" fill="#475569" letter-spacing="0.02em">EXTERIOR CLEANING</text>
</svg>
