<?xml version="1.0" standalone="no"?>
<!DOCTYPE svg PUBLIC "-//W3C//DTD SVG 1.1//EN" "http://www.w3.org/Graphics/SVG/1.1/DTD/svg11.dtd" >
<svg xmlns="http://www.w3.org/2000/svg" xmlns:xlink="http://www.w3.org/1999/xlink" version="1.1">
<metadata>
Created by FontForge 20230101 at Wed Nov 19 06:45:44 2014
 By Unknown
Copyright (c) Mark Simonson, 2005. All rights reserved.
</metadata>
<defs>
<font id="RefrigeratorDeluxe" horiz-adv-x="388" >
  <font-face 
    font-family="Refrigerator Deluxe"
    font-weight="400"
    font-stretch="condensed"
    units-per-em="1000"
    panose-1="2 11 5 6 2 2 2 5 2 3"
    ascent="850"
    descent="-150"
    x-height="470"
    cap-height="700"
    bbox="-106 -230 757 918"
    underline-thickness="68"
    underline-position="-116"
    unicode-range="U+0020-2122"
  />
<missing-glyph horiz-adv-x="500" 
d="M125 63h250v675h-250v-675zM63 0v800h375v-800h-375z" />
    <glyph glyph-name="fi" unicode="fi" horiz-adv-x="432" 
d="M377 0h-68v402h-157v-402h-68v402h-70v68h70v140q0 18 7 34.5t19 29t28.5 19.5t35.5 7h68v-68h-68q-22 0 -22 -22v-140h225v-470zM298 608q0 19 13.5 32.5t32.5 13.5t32.5 -13.5t13.5 -32.5t-13.5 -32.5t-32.5 -13.5t-32.5 13.5t-13.5 32.5z" />
    <glyph glyph-name="fl" unicode="fl" horiz-adv-x="432" 
d="M377 0h-68v632h-135q-22 0 -22 -22v-140h90v-68h-90v-402h-68v402h-70v68h70v140q0 18 7 34.5t19 29t28.5 19.5t35.5 7h203v-700z" />
    <glyph glyph-name="ff" unicode="ff" horiz-adv-x="494" 
d="M467 402h-90v-402h-68v402h-157v-402h-68v402h-70v68h70v140q0 18 7 34.5t19 29t28.5 19.5t35.5 7h68v-68h-68q-22 0 -22 -22v-140h157v140q0 18 7 34.5t19 29t28.5 19.5t35.5 7h68v-68h-68q-22 0 -22 -22v-140h90v-68z" />
    <glyph glyph-name="ffl" unicode="ffl" horiz-adv-x="657" 
d="M467 402h-90v-402h-68v402h-157v-402h-68v402h-70v68h70v140q0 18 7 34.5t19 29t28.5 19.5t35.5 7h68v-68h-68q-22 0 -22 -22v-140h157v140q0 18 7 34.5t19 29t28.5 19.5t35.5 7h203v-700h-68v632h-135q-22 0 -22 -22v-140h90v-68z" />
    <glyph glyph-name="ffi" unicode="ffi" horiz-adv-x="657" 
d="M602 0h-68v402h-157v-402h-68v402h-157v-402h-68v402h-70v68h70v140q0 18 7 34.5t19 29t28.5 19.5t35.5 7h68v-68h-68q-22 0 -22 -22v-140h157v140q0 18 7 34.5t19 29t28.5 19.5t35.5 7h68v-68h-68q-22 0 -22 -22v-140h225v-470zM523 608q0 19 13.5 32.5t32.5 13.5
t32.5 -13.5t13.5 -32.5t-13.5 -32.5t-32.5 -13.5t-32.5 13.5t-13.5 32.5z" />
    <glyph glyph-name="f_b" unicode="fb" horiz-adv-x="642" 
d="M587 90q0 -18 -7 -34.5t-19 -29t-28.5 -19.5t-35.5 -7h-48q-56 0 -72 45v-45h-68v632h-135q-22 0 -22 -22v-140h90v-68h-90v-402h-68v402h-70v68h70v140q0 18 7 34.5t19 29t28.5 19.5t35.5 7h203v-275q15 45 72 45h48q19 0 35.5 -7t28.5 -19.5t19 -29t7 -34.5v-290z
M519 380q0 22 -22 22h-98q-22 0 -22 -22v-290q0 -22 22 -22h98q22 0 22 22v290z" />
    <glyph glyph-name="f_h" unicode="fh" horiz-adv-x="642" 
d="M587 0h-68v380q0 22 -22 22h-98q-22 0 -22 -22v-380h-68v632h-135q-22 0 -22 -22v-140h90v-68h-90v-402h-68v402h-70v68h70v140q0 18 7 34.5t19 29t28.5 19.5t35.5 7h203v-275q15 45 72 45h48q38 0 64 -26t26 -64v-380z" />
    <glyph glyph-name="f_j" unicode="fj" horiz-adv-x="432" 
d="M377 -60q0 -18 -7 -34.5t-19.5 -28.5t-29 -19.5t-34.5 -7.5h-68v68h68q22 0 22 22v462h-157v-402h-68v402h-70v68h70v140q0 18 7 34.5t19 29t28.5 19.5t35.5 7h68v-68h-68q-22 0 -22 -22v-140h225v-530zM298 608q0 19 13.5 32.5t32.5 13.5t32.5 -13.5t13.5 -32.5
t-13.5 -32.5t-32.5 -13.5t-32.5 13.5t-13.5 32.5z" />
    <glyph glyph-name="f_k" unicode="fk" horiz-adv-x="602" 
d="M481 279l116 -279h-78l-78 209l-64 -110v-99h-68v632h-135q-22 0 -22 -22v-140h90v-68h-90v-402h-68v402h-70v68h70v140q0 18 7 34.5t19 29t28.5 19.5t35.5 7h203v-486l142 256h74z" />
    <glyph glyph-name="f_t" unicode="ft" horiz-adv-x="479" 
d="M452 0h-68q-37 0 -63.5 26.5t-26.5 63.5v312h-142v-402h-68v402h-70v68h70v140q0 18 7 34.5t19 29t28.5 19.5t35.5 7h68v-68h-68q-22 0 -22 -22v-140h142v140h68v-140h90v-68h-90v-312q0 -22 22 -22h68v-68z" />
    <glyph glyph-name="t_f" unicode="tf" horiz-adv-x="494" 
d="M152 470h157v140q0 18 7 34.5t19 29t28.5 19.5t35.5 7h68v-68h-68q-22 0 -22 -22v-140h90v-68h-90v-402h-68v402h-157v-312q0 -22 22 -22h68v-68h-68q-37 0 -63.5 26.5t-26.5 63.5v312h-70v68h70v140h68v-140z" />
    <glyph glyph-name="t_t" unicode="tt" horiz-adv-x="494" 
d="M467 0h-68q-37 0 -63.5 26.5t-26.5 63.5v312h-157v-312q0 -22 22 -22h68v-68h-68q-37 0 -63.5 26.5t-26.5 63.5v312h-70v68h70v140h68v-140h157v140h68v-140h90v-68h-90v-312q0 -22 22 -22h68v-68z" />
    <glyph glyph-name="t_t_f" unicode="ttf" horiz-adv-x="719" 
d="M692 402h-90v-402h-68v402h-157v-312q0 -22 22 -22h68v-68h-68q-37 0 -63.5 26.5t-26.5 63.5v312h-157v-312q0 -22 22 -22h68v-68h-68q-37 0 -63.5 26.5t-26.5 63.5v312h-70v68h70v140h68v-140h157v140h68v-140h157v140q0 18 7 34.5t19 29t28.5 19.5t35.5 7h68v-68h-68
q-22 0 -22 -22v-140h90v-68z" />
    <glyph glyph-name=".notdef" horiz-adv-x="500" 
d="M125 63h250v675h-250v-675zM63 0v800h375v-800h-375z" />
    <glyph glyph-name=".null" horiz-adv-x="0" 
 />
    <glyph glyph-name="nonmarkingreturn" horiz-adv-x="333" 
 />
    <glyph glyph-name="space" unicode=" " horiz-adv-x="200" 
 />
    <glyph glyph-name="space" unicode="&#xa0;" horiz-adv-x="200" 
 />
    <glyph glyph-name="space" unicode="&#xa0;" horiz-adv-x="200" 
 />
    <glyph glyph-name="exclam" unicode="!" horiz-adv-x="222" 
d="M149 175h-75v525h75v-525zM61 40q0 21 14.5 35.5t35.5 14.5t35.5 -14.5t14.5 -35.5t-14.5 -35.5t-35.5 -14.5t-35.5 14.5t-14.5 35.5z" />
    <glyph glyph-name="quotedbl" unicode="&#x22;" horiz-adv-x="361" 
d="M156 700l-27 -201h-36l-28 201h91zM296 700l-28 -201h-36l-27 201h91z" />
    <glyph glyph-name="numbersign" unicode="#" horiz-adv-x="513" 
d="M113 493h84l69 207h48l-69 -207h115l69 207h48l-69 -207h75v-45h-90l-65 -196h72v-45h-87l-68 -207h-48l68 207h-115l-68 -207h-48l68 207h-72v45h87l65 196h-69v45zM165 252h115l65 196h-115z" />
    <glyph glyph-name="dollar" unicode="$" horiz-adv-x="435" 
d="M305 244q0 20 -14 27l-172 89q-33 17 -48.5 43.5t-15.5 52.5v54q0 42 29 71t71 29h30v90h65v-90h30q42 0 71 -29t29 -71v-58h-75v58q0 25 -25 25h-125q-25 0 -25 -25v-51q0 -20 14 -27l174 -90q34 -17 48 -40t14 -51v-61q0 -42 -29 -71t-71 -29h-30v-90h-65v90h-30
q-42 0 -71 29t-29 71v61h75v-61q0 -25 25 -25h125q25 0 25 25v54z" />
    <glyph glyph-name="percent" unicode="%" horiz-adv-x="629" 
d="M212 633q0 16 -16 16h-73q-16 0 -16 -16v-217q0 -7 4.5 -12t11.5 -5h73q7 0 11.5 5t4.5 12v217zM454 700l-231 -700h-48l232 700h47zM264 416q0 -28 -20 -47.5t-48 -19.5h-73q-28 0 -48 19.5t-20 47.5v217q0 28 20 47.5t48 19.5h73q28 0 48 -19.5t20 -47.5v-217zM522 284
q0 16 -16 16h-73q-16 0 -16 -16v-217q0 -7 4.5 -12t11.5 -5h73q7 0 11.5 5t4.5 12v217zM574 67q0 -28 -20 -47.5t-48 -19.5h-73q-28 0 -48 19.5t-20 47.5v217q0 28 20 47.5t48 19.5h73q28 0 48 -19.5t20 -47.5v-217z" />
    <glyph glyph-name="ampersand" unicode="&#x26;" horiz-adv-x="586" 
d="M360 163l-55 -109q-11 -21 -32 -37.5t-61 -16.5h-57q-42 0 -71 29t-29 71v157q0 25 8 43.5t28 38.5l45 46l-47 47q-14 14 -24 39.5t-10 52.5v76q0 42 29 71t71 29h125q42 0 71 -29t29 -71v-87h-75v87q0 25 -25 25h-125q-25 0 -25 -25v-76q0 -26 14 -40l198 -196l65 128
h80l-91 -181l190 -188l-54 -54zM212 75q23 0 31 16l63 126l-117 116l-45 -46q-8 -8 -11 -15.5t-3 -19.5v-152q0 -25 25 -25h57z" />
    <glyph glyph-name="quotesingle" unicode="'" horiz-adv-x="221" 
d="M156 700l-27 -201h-36l-28 201h91z" />
    <glyph glyph-name="parenleft" unicode="(" horiz-adv-x="220" 
d="M160 -151q-106 175 -106 476q0 300 106 475h41q-80 -180 -80 -475q0 -296 80 -476h-41z" />
    <glyph glyph-name="parenright" unicode=")" horiz-adv-x="220" 
d="M60 800q106 -175 106 -476q0 -300 -106 -475h-41q80 180 80 475q0 296 -80 476h41z" />
    <glyph glyph-name="asterisk" unicode="*" horiz-adv-x="342" 
d="M189 525l12 -115h-58l12 115l-94 -68l-29 51l106 47l-106 47l29 51l94 -69l-12 116h58l-12 -116l94 69l29 -51l-106 -47l106 -47l-29 -51z" />
    <glyph glyph-name="plus" unicode="+" horiz-adv-x="460" 
d="M430 201h-169v-166h-67v166h-164v67h164v167h67v-167h169v-67z" />
    <glyph glyph-name="comma" unicode="," horiz-adv-x="182" 
d="M141 40q0 -10 -4 -20l-56 -120h-35l31 93q-11 2 -23.5 14t-12.5 33t14.5 35.5t35.5 14.5t35.5 -14.5t14.5 -35.5z" />
    <glyph glyph-name="hyphen" unicode="-" horiz-adv-x="271" 
d="M241 201h-211v68h211v-68z" />
    <glyph glyph-name="period" unicode="." horiz-adv-x="190" 
d="M45 40q0 21 14.5 35.5t35.5 14.5t35.5 -14.5t14.5 -35.5t-14.5 -35.5t-35.5 -14.5t-35.5 14.5t-14.5 35.5z" />
    <glyph glyph-name="slash" unicode="/" horiz-adv-x="307" 
d="M293 800l-231 -951h-48l232 951h47z" />
    <glyph glyph-name="zero" unicode="0" horiz-adv-x="435" 
d="M305 600q0 25 -25 25h-125q-25 0 -25 -25v-500q0 -25 25 -25h125q25 0 25 25v500zM380 100q0 -42 -29 -71t-71 -29h-125q-42 0 -71 29t-29 71v500q0 42 29 71t71 29h125q42 0 71 -29t29 -71v-500z" />
    <glyph glyph-name="one" unicode="1" horiz-adv-x="343" 
d="M316 0h-275v75h100v550h-100v75h175v-625h100v-75z" />
    <glyph glyph-name="two" unicode="2" horiz-adv-x="435" 
d="M298 497q4 5 5.5 10t1.5 16v77q0 25 -25 25h-125q-11 0 -18 -7t-7 -18v-100h-75v100q0 42 29 71t71 29h125q42 0 71 -29t29 -71v-77q0 -24 -4.5 -42.5t-16.5 -33.5l-222 -284q-4 -5 -5.5 -10t-1.5 -16v-62h250v-75h-325v137q0 24 4.5 42.5t16.5 33.5z" />
    <glyph glyph-name="three" unicode="3" horiz-adv-x="435" 
d="M380 100q0 -42 -29 -71t-71 -29h-125q-42 0 -71 29t-29 71v87h75v-87q0 -25 25 -25h125q25 0 25 25v207q0 11 -7 18.5t-18 7.5h-150v75h150q25 0 25 25v167q0 25 -25 25h-125q-25 0 -25 -25v-87h-75v87q0 42 29 71t71 29h125q42 0 71 -29t29 -71v-154q0 -32 -13.5 -51
t-36.5 -26q23 -7 36.5 -26t13.5 -51v-192z" />
    <glyph glyph-name="four" unicode="4" horiz-adv-x="432" 
d="M266 238v318l-145 -318h145zM391 163h-50v-163h-75v163h-225v62l225 475h75v-462h50v-75z" />
    <glyph glyph-name="five" unicode="5" horiz-adv-x="435" 
d="M380 100q0 -42 -29 -71t-71 -29h-125q-42 0 -71 29t-29 71v88h75v-88q0 -25 25 -25h125q25 0 25 25v270q0 25 -25 25h-125q-25 0 -25 -25v-38h-75v368h315v-75h-240v-205q20 50 78 50h72q42 0 71 -29t29 -71v-270z" />
    <glyph glyph-name="six" unicode="6" horiz-adv-x="435" 
d="M305 308q0 25 -25 25h-125q-25 0 -25 -25v-208q0 -25 25 -25h125q25 0 25 25v208zM380 100q0 -21 -8 -39t-21.5 -31.5t-31.5 -21.5t-39 -8h-125q-42 0 -71 29t-29 71v500q0 42 29 71t71 29h125q42 0 71 -29t29 -71v-75h-75v75q0 25 -25 25h-125q-25 0 -25 -25v-242
q20 50 78 50h72q21 0 39 -8t31.5 -21.5t21.5 -31.5t8 -39v-208z" />
    <glyph glyph-name="seven" unicode="7" horiz-adv-x="393" 
d="M352 625l-144 -625h-81l150 625h-175v-113h-75v188h325v-75z" />
    <glyph glyph-name="eight" unicode="8" horiz-adv-x="435" 
d="M305 308q0 25 -25 25h-125q-25 0 -25 -25v-208q0 -25 25 -25h125q25 0 25 25v208zM305 600q0 25 -25 25h-125q-25 0 -25 -25v-167q0 -25 25 -25h125q25 0 25 25v167zM55 295q0 27 13.5 47.5t36.5 27.5q-23 7 -36.5 27.5t-13.5 47.5v155q0 42 29 71t71 29h125q42 0 71 -29
t29 -71v-155q0 -27 -13.5 -47.5t-36.5 -27.5q23 -7 36.5 -27.5t13.5 -47.5v-195q0 -42 -29 -71t-71 -29h-125q-42 0 -71 29t-29 71v195z" />
    <glyph glyph-name="nine" unicode="9" horiz-adv-x="435" 
d="M130 392q0 -25 25 -25h125q25 0 25 25v208q0 25 -25 25h-125q-25 0 -25 -25v-208zM55 600q0 21 7.5 39t21 31.5t32 21.5t39.5 8h125q42 0 71 -29t29 -71v-500q0 -42 -29 -71t-71 -29h-125q-42 0 -71 29t-29 71v75h75v-75q0 -25 25 -25h125q25 0 25 25v242
q-20 -50 -78 -50h-72q-21 0 -39.5 8t-32 21.5t-21 31.5t-7.5 39v208z" />
    <glyph glyph-name="colon" unicode=":" horiz-adv-x="190" 
d="M45 40q0 21 14.5 35.5t35.5 14.5t35.5 -14.5t14.5 -35.5t-14.5 -35.5t-35.5 -14.5t-35.5 14.5t-14.5 35.5zM45 430q0 21 14.5 35.5t35.5 14.5t35.5 -14.5t14.5 -35.5t-14.5 -35.5t-35.5 -14.5t-35.5 14.5t-14.5 35.5z" />
    <glyph glyph-name="semicolon" unicode=";" horiz-adv-x="190" 
d="M45 430q0 21 14.5 35.5t35.5 14.5t35.5 -14.5t14.5 -35.5t-14.5 -35.5t-35.5 -14.5t-35.5 14.5t-14.5 35.5zM145 40q0 -10 -4 -20l-56 -120h-35l31 93q-11 2 -23.5 14t-12.5 33t14.5 35.5t35.5 14.5t35.5 -14.5t14.5 -35.5z" />
    <glyph glyph-name="less" unicode="&#x3c;" horiz-adv-x="460" 
d="M99 233l331 -135v-72l-400 163v89l400 163v-72z" />
    <glyph glyph-name="equal" unicode="=" horiz-adv-x="460" 
d="M430 111h-400v67h400v-67zM430 291h-400v67h400v-67z" />
    <glyph glyph-name="greater" unicode="&#x3e;" horiz-adv-x="460" 
d="M30 98l331 135l-331 136v72l400 -163v-89l-400 -163v72z" />
    <glyph glyph-name="question" unicode="?" horiz-adv-x="385" 
d="M355 523q0 -27 -9.5 -46t-29.5 -40l-120 -122q-8 -8 -8 -19t8 -19l53 -53l-53 -52l-51 49q-13 13 -21 31t-8 39q0 48 30 77l122 121q5 5 8.5 13.5t3.5 18.5v79q0 25 -25 25h-125q-25 0 -25 -25v-88h-75v88q0 42 29 71t71 29h125q42 0 71 -29t29 -71v-77zM143 40
q0 21 14.5 35.5t35.5 14.5t35.5 -14.5t14.5 -35.5t-14.5 -35.5t-35.5 -14.5t-35.5 14.5t-14.5 35.5z" />
    <glyph glyph-name="at" unicode="@" horiz-adv-x="574" 
d="M356 380q0 22 -22 22h-98q-22 0 -22 -22v-290q0 -22 22 -22h98q22 0 22 22v290zM428 0q-57 0 -72 45q-15 -45 -72 -45h-48q-37 0 -63.5 26.5t-26.5 63.5v290q0 37 26.5 63.5t63.5 26.5h48q58 0 72 -45v45h68v-417q0 -22 22 -22h20q22 0 22 22v309q0 42 -16 78.5t-43 63.5
t-63.5 43t-78.5 16t-78.5 -16t-63.5 -43t-43 -63.5t-16 -78.5v-252q0 -42 16 -78.5t43 -63.5t63.5 -43t78.5 -16q56 0 103 28l13 -27q-26 -15 -55 -23.5t-61 -8.5q-48 0 -90.5 18t-74 49.5t-49.5 74t-18 90.5v252q0 48 18 90t49.5 73.5t74 50t90.5 18.5t90 -18.5t73.5 -50
t50 -74t18.5 -89.5v-310q0 -23 -13 -37.5t-40 -14.5h-38z" />
    <glyph glyph-name="A" unicode="A" horiz-adv-x="425" 
d="M309 113h-193l-23 -113h-76l150 700h91l150 -700h-76zM131 188h162l-81 395z" />
    <glyph glyph-name="B" unicode="B" horiz-adv-x="435" 
d="M305 308q0 25 -25 25h-150v-258h150q25 0 25 25v208zM305 600q0 25 -25 25h-150v-218h150q25 0 25 25v168zM380 100q0 -42 -29 -71t-71 -29h-225v700h225q42 0 71 -29t29 -71v-168q0 -22 -13.5 -38.5t-36.5 -23.5q23 -7 36.5 -23.5t13.5 -38.5v-208z" />
    <glyph glyph-name="B" unicode="&#xe000;" horiz-adv-x="435" 
d="M305 308q0 25 -25 25h-150v-258h150q25 0 25 25v208zM305 600q0 25 -25 25h-150v-218h150q25 0 25 25v168zM380 100q0 -42 -29 -71t-71 -29h-225v700h225q42 0 71 -29t29 -71v-168q0 -22 -13.5 -38.5t-36.5 -23.5q23 -7 36.5 -23.5t13.5 -38.5v-208z" />
    <glyph glyph-name="B" unicode="&#xe000;" horiz-adv-x="435" 
d="M305 308q0 25 -25 25h-150v-258h150q25 0 25 25v208zM305 600q0 25 -25 25h-150v-218h150q25 0 25 25v168zM380 100q0 -42 -29 -71t-71 -29h-225v700h225q42 0 71 -29t29 -71v-168q0 -22 -13.5 -38.5t-36.5 -23.5q23 -7 36.5 -23.5t13.5 -38.5v-208z" />
    <glyph glyph-name="C" unicode="C" horiz-adv-x="435" 
d="M380 100q0 -42 -29 -71t-71 -29h-125q-42 0 -71 29t-29 71v500q0 42 29 71t71 29h125q42 0 71 -29t29 -71v-88h-75v88q0 25 -25 25h-125q-25 0 -25 -25v-500q0 -25 25 -25h125q25 0 25 25v88h75v-88z" />
    <glyph glyph-name="D" unicode="D" horiz-adv-x="435" 
d="M305 600q0 25 -25 25h-150v-550h150q25 0 25 25v500zM380 100q0 -42 -29 -71t-71 -29h-225v700h225q42 0 71 -29t29 -71v-500z" />
    <glyph glyph-name="E" unicode="E" horiz-adv-x="360" 
d="M330 0h-275v700h275v-75h-200v-217h150v-75h-150v-258h200v-75z" />
    <glyph glyph-name="E" unicode="&#xe001;" horiz-adv-x="360" 
d="M330 0h-275v700h275v-75h-200v-217h150v-75h-150v-258h200v-75z" />
    <glyph glyph-name="E" unicode="&#xe001;" horiz-adv-x="360" 
d="M330 0h-275v700h275v-75h-200v-217h150v-75h-150v-258h200v-75z" />
    <glyph glyph-name="F" unicode="F" horiz-adv-x="360" 
d="M330 625h-200v-217h150v-76h-150v-332h-75v700h275v-75z" />
    <glyph glyph-name="G" unicode="G" horiz-adv-x="435" 
d="M380 100q0 -42 -29 -71t-71 -29h-125q-42 0 -71 29t-29 71v500q0 42 29 71t71 29h125q42 0 71 -29t29 -71v-100h-75v100q0 25 -25 25h-125q-25 0 -25 -25v-500q0 -25 25 -25h125q25 0 25 25v183h-88v75h163v-258z" />
    <glyph glyph-name="H" unicode="H" horiz-adv-x="435" 
d="M380 0h-75v333h-175v-333h-75v700h75v-292h175v292h75v-700z" />
    <glyph glyph-name="I" unicode="I" horiz-adv-x="185" 
d="M130 0h-75v700h75v-700z" />
    <glyph glyph-name="J" unicode="J" horiz-adv-x="386" 
d="M331 100q0 -42 -29 -71t-71 -29h-100q-42 0 -71 29t-29 71v100h75v-100q0 -25 25 -25h100q25 0 25 25v600h75v-600z" />
    <glyph glyph-name="K" unicode="K" horiz-adv-x="437" 
d="M251 379l180 -379h-86l-136 299l-79 -149v-150h-75v700h75v-409l207 409h83z" />
    <glyph glyph-name="L" unicode="L" horiz-adv-x="360" 
d="M330 0h-275v700h75v-625h200v-75z" />
    <glyph glyph-name="M" unicode="M" horiz-adv-x="553" 
d="M498 0h-75v532l-132 -482h-32l-129 482v-532h-75v700h101l119 -442l122 442h101v-700z" />
    <glyph glyph-name="N" unicode="N" horiz-adv-x="435" 
d="M380 0h-63l-187 518v-518h-75v700h83l167 -472v472h75v-700z" />
    <glyph glyph-name="O" unicode="O" horiz-adv-x="435" 
d="M305 600q0 25 -25 25h-125q-25 0 -25 -25v-500q0 -25 25 -25h125q25 0 25 25v500zM380 100q0 -42 -29 -71t-71 -29h-125q-42 0 -71 29t-29 71v500q0 42 29 71t71 29h125q42 0 71 -29t29 -71v-500z" />
    <glyph glyph-name="P" unicode="P" horiz-adv-x="410" 
d="M305 600q0 25 -25 25h-150v-282h150q25 0 25 25v232zM380 368q0 -21 -8 -39t-21.5 -31.5t-31.5 -21.5t-39 -8h-150v-268h-75v700h225q42 0 71 -29t29 -71v-232z" />
    <glyph glyph-name="Q" unicode="Q" horiz-adv-x="435" 
d="M305 600q0 25 -25 25h-125q-25 0 -25 -25v-500q0 -25 25 -25h125q25 0 25 25v500zM380 100q0 -42 -29 -71t-71 -29h-25v-50q0 -25 25 -25h25v-75h-25q-42 0 -71 29t-29 71v50h-25q-42 0 -71 29t-29 71v500q0 42 29 71t71 29h125q42 0 71 -29t29 -71v-500z" />
    <glyph glyph-name="R" unicode="R" horiz-adv-x="435" 
d="M380 393q0 -35 -20 -61t-52 -35l71 -297h-80l-64 293h-105v-293h-75v700h225q21 0 39 -8t31.5 -21.5t21.5 -31.5t8 -39v-207zM305 600q0 25 -25 25h-150v-257h150q25 0 25 25v207z" />
    <glyph glyph-name="S" unicode="S" horiz-adv-x="435" 
d="M305 200q0 21 -12 33l-204 203q-16 15 -25 38t-9 49v77q0 42 29 71t71 29h125q42 0 71 -29t29 -71v-100h-75v100q0 25 -25 25h-125q-25 0 -25 -25v-77q0 -20 12 -32l204 -203q16 -15 25 -38.5t9 -49.5v-100q0 -42 -29 -71t-71 -29h-125q-42 0 -71 29t-29 71v100h75v-100
q0 -11 7 -18t18 -7h125q25 0 25 25v100z" />
    <glyph glyph-name="S" unicode="&#xe002;" horiz-adv-x="435" 
d="M305 200q0 21 -12 33l-204 203q-16 15 -25 38t-9 49v77q0 42 29 71t71 29h125q42 0 71 -29t29 -71v-100h-75v100q0 25 -25 25h-125q-25 0 -25 -25v-77q0 -20 12 -32l204 -203q16 -15 25 -38.5t9 -49.5v-100q0 -42 -29 -71t-71 -29h-125q-42 0 -71 29t-29 71v100h75v-100
q0 -11 7 -18t18 -7h125q25 0 25 25v100z" />
    <glyph glyph-name="S" unicode="&#xe002;" horiz-adv-x="435" 
d="M305 200q0 21 -12 33l-204 203q-16 15 -25 38t-9 49v77q0 42 29 71t71 29h125q42 0 71 -29t29 -71v-100h-75v100q0 25 -25 25h-125q-25 0 -25 -25v-77q0 -20 12 -32l204 -203q16 -15 25 -38.5t9 -49.5v-100q0 -42 -29 -71t-71 -29h-125q-42 0 -71 29t-29 71v100h75v-100
q0 -11 7 -18t18 -7h125q25 0 25 25v100z" />
    <glyph glyph-name="T" unicode="T" horiz-adv-x="385" 
d="M355 625h-125v-625h-75v625h-125v75h325v-75z" />
    <glyph glyph-name="U" unicode="U" horiz-adv-x="435" 
d="M380 100q0 -42 -29 -71t-71 -29h-125q-42 0 -71 29t-29 71v600h75v-600q0 -25 25 -25h125q25 0 25 25v600h75v-600z" />
    <glyph glyph-name="V" unicode="V" horiz-adv-x="425" 
d="M213 117l119 583h76l-150 -700h-91l-150 700h76z" />
    <glyph glyph-name="W" unicode="W" horiz-adv-x="639" 
d="M622 700l-120 -700h-96l-87 506l-86 -506h-96l-120 700h75l97 -578l97 578h68l96 -578l99 578h73z" />
    <glyph glyph-name="X" unicode="X" horiz-adv-x="432" 
d="M425 0h-85l-124 295l-123 -295h-86l167 366l-151 334h82l111 -263l112 263h81l-150 -334z" />
    <glyph glyph-name="Y" unicode="Y" horiz-adv-x="384" 
d="M379 700l-151 -430v-270h-74v270l-149 430h79l108 -345l109 345h78z" />
    <glyph glyph-name="Z" unicode="Z" horiz-adv-x="393" 
d="M363 0h-333v75l242 550h-234v75h317v-75l-243 -550h251v-75z" />
    <glyph glyph-name="bracketleft" unicode="[" horiz-adv-x="237" 
d="M210 -151h-155v951h155v-49h-107v-853h107v-49z" />
    <glyph glyph-name="backslash" unicode="\" horiz-adv-x="307" 
d="M61 800l232 -951h-48l-231 951h47z" />
    <glyph glyph-name="bracketright" unicode="]" horiz-adv-x="284" 
d="M27 800h155v-951h-155v49h107v853h-107v49z" />
    <glyph glyph-name="asciicircum" unicode="^" horiz-adv-x="290" 
d="M266 551l-36 -36l-85 86l-85 -86l-36 36l121 120z" />
    <glyph glyph-name="underscore" unicode="_" horiz-adv-x="450" 
d="M450 -68h-450v68h450v-68z" />
    <glyph glyph-name="grave" unicode="`" 
d="M274 563l-35 -35l-125 125l35 35z" />
    <glyph glyph-name="a" unicode="a" 
d="M265 190q0 22 -22 22h-97q-22 0 -22 -22v-100q0 -22 22 -22h97q22 0 22 22v100zM333 0h-68v38q-5 -17 -20.5 -27.5t-38.5 -10.5h-59q-18 0 -35 7t-29.5 19.5t-20 29t-7.5 34.5v100q0 40 26 65t64 25h61q23 0 38.5 -10.5t20.5 -27.5v138q0 22 -22 22h-154v68h154
q19 0 35.5 -7t28.5 -19.5t19 -29t7 -34.5v-380z" />
    <glyph glyph-name="b" unicode="b" 
d="M265 380q0 22 -22 22h-98q-22 0 -22 -22v-290q0 -22 22 -22h98q22 0 22 22v290zM333 90q0 -18 -7 -34.5t-19 -29t-28.5 -19.5t-35.5 -7h-48q-56 0 -72 45v-45h-68v700h68v-275q15 45 72 45h48q19 0 35.5 -7t28.5 -19.5t19 -29t7 -34.5v-290z" />
    <glyph glyph-name="b" unicode="&#xe003;" 
d="M265 380q0 22 -22 22h-98q-22 0 -22 -22v-290q0 -22 22 -22h98q22 0 22 22v290zM333 90q0 -18 -7 -34.5t-19 -29t-28.5 -19.5t-35.5 -7h-48q-56 0 -72 45v-45h-68v700h68v-275q15 45 72 45h48q19 0 35.5 -7t28.5 -19.5t19 -29t7 -34.5v-290z" />
    <glyph glyph-name="b" unicode="&#xe003;" 
d="M265 380q0 22 -22 22h-98q-22 0 -22 -22v-290q0 -22 22 -22h98q22 0 22 22v290zM333 90q0 -18 -7 -34.5t-19 -29t-28.5 -19.5t-35.5 -7h-48q-56 0 -72 45v-45h-68v700h68v-275q15 45 72 45h48q19 0 35.5 -7t28.5 -19.5t19 -29t7 -34.5v-290z" />
    <glyph glyph-name="c" unicode="c" 
d="M333 90q0 -18 -7 -34.5t-19 -29t-28.5 -19.5t-35.5 -7h-98q-37 0 -63.5 26.5t-26.5 63.5v290q0 37 26.5 63.5t63.5 26.5h98q19 0 35.5 -7t28.5 -19.5t19 -29t7 -34.5v-78h-68v78q0 22 -22 22h-98q-22 0 -22 -22v-290q0 -22 22 -22h98q22 0 22 22v79h68v-79z" />
    <glyph glyph-name="d" unicode="d" 
d="M265 380q0 22 -22 22h-98q-22 0 -22 -22v-290q0 -22 22 -22h98q22 0 22 22v290zM333 0h-68v45q-15 -45 -72 -45h-48q-37 0 -63.5 26.5t-26.5 63.5v290q0 37 26.5 63.5t63.5 26.5h48q58 0 72 -45v275h68v-700z" />
    <glyph glyph-name="e" unicode="e" 
d="M265 259v121q0 22 -22 22h-98q-22 0 -22 -22v-121h142zM333 192h-210v-102q0 -22 22 -22h155v-68h-155q-37 0 -63.5 26.5t-26.5 63.5v290q0 37 26.5 63.5t63.5 26.5h98q19 0 35.5 -7t28.5 -19.5t19 -29t7 -34.5v-188z" />
    <glyph glyph-name="f" unicode="f" horiz-adv-x="269" 
d="M242 402h-90v-402h-68v402h-70v68h70v140q0 18 7 34.5t19 29t28.5 19.5t35.5 7h68v-68h-68q-22 0 -22 -22v-140h90v-68z" />
    <glyph glyph-name="g" unicode="g" 
d="M265 380q0 22 -22 22h-98q-22 0 -22 -22v-290q0 -22 22 -22h98q22 0 22 22v290zM333 -60q0 -18 -7 -34.5t-19.5 -28.5t-29 -19.5t-34.5 -7.5h-132v68h132q22 0 22 22v105q-15 -45 -72 -45h-48q-37 0 -63.5 26.5t-26.5 63.5v290q0 37 26.5 63.5t63.5 26.5h48q58 0 72 -45
v45h68v-530z" />
    <glyph glyph-name="h" unicode="h" 
d="M333 0h-68v380q0 22 -22 22h-98q-22 0 -22 -22v-380h-68v700h68v-275q15 45 72 45h48q38 0 64 -26t26 -64v-380z" />
    <glyph glyph-name="i" unicode="i" horiz-adv-x="178" 
d="M123 0h-68v470h68v-470zM44 608q0 19 13.5 32.5t32.5 13.5t32.5 -13.5t13.5 -32.5t-13.5 -32.5t-32.5 -13.5t-32.5 13.5t-13.5 32.5z" />
    <glyph glyph-name="j" unicode="j" horiz-adv-x="178" 
d="M123 -60q0 -18 -7 -34.5t-19.5 -28.5t-29 -19.5t-34.5 -7.5h-68v68h68q22 0 22 22v530h68v-530zM44 608q0 19 13.5 32.5t32.5 13.5t32.5 -13.5t13.5 -32.5t-13.5 -32.5t-32.5 -13.5t-32.5 13.5t-13.5 32.5z" />
    <glyph glyph-name="k" unicode="k" horiz-adv-x="348" 
d="M227 279l116 -279h-78l-78 209l-64 -110v-99h-68v700h68v-486l142 256h74z" />
    <glyph glyph-name="l" unicode="l" horiz-adv-x="178" 
d="M123 0h-68v700h68v-700z" />
    <glyph glyph-name="m" unicode="m" horiz-adv-x="568" 
d="M513 0h-68v380q0 22 -22 22h-83q-22 0 -22 -22v-380h-68v380q0 22 -22 22h-83q-22 0 -22 -22v-380h-68v470h68v-45q15 45 72 45h33q31 0 53 -12t27 -34q11 46 72 46h43q38 0 64 -26t26 -64v-380z" />
    <glyph glyph-name="n" unicode="n" 
d="M333 0h-68v380q0 22 -22 22h-98q-22 0 -22 -22v-380h-68v470h68v-45q15 45 72 45h48q38 0 64 -26t26 -64v-380z" />
    <glyph glyph-name="o" unicode="o" 
d="M265 380q0 22 -22 22h-98q-22 0 -22 -22v-290q0 -22 22 -22h98q22 0 22 22v290zM333 90q0 -18 -7 -34.5t-19 -29t-28.5 -19.5t-35.5 -7h-98q-37 0 -63.5 26.5t-26.5 63.5v290q0 19 7 35.5t19.5 28.5t29 19t34.5 7h98q38 0 64 -26t26 -64v-290z" />
    <glyph glyph-name="p" unicode="p" 
d="M265 380q0 22 -22 22h-98q-22 0 -22 -22v-290q0 -22 22 -22h98q22 0 22 22v290zM333 90q0 -18 -7 -34.5t-19 -29t-28.5 -19.5t-35.5 -7h-48q-56 0 -72 45v-195h-68v620h68v-45q15 45 72 45h48q19 0 35.5 -7t28.5 -19.5t19 -29t7 -34.5v-290z" />
    <glyph glyph-name="q" unicode="q" 
d="M265 380q0 22 -22 22h-98q-22 0 -22 -22v-290q0 -22 22 -22h98q22 0 22 22v290zM333 -150h-68v195q-15 -45 -72 -45h-48q-37 0 -63.5 26.5t-26.5 63.5v290q0 37 26.5 63.5t63.5 26.5h48q58 0 72 -45v45h68v-620z" />
    <glyph glyph-name="r" unicode="r" horiz-adv-x="256" 
d="M243 402h-98q-22 0 -22 -22v-380h-68v470h68v-45q15 45 72 45h48v-68z" />
    <glyph glyph-name="s" unicode="s" 
d="M265 148q0 17 -14 24l-141 68q-20 10 -37.5 28t-17.5 50v62q0 37 26.5 63.5t63.5 26.5h98q19 0 35.5 -7t28.5 -19.5t19 -29t7 -34.5v-58h-68v58q0 22 -22 22h-98q-22 0 -22 -22v-53q0 -18 14 -25l141 -68q20 -10 37.5 -28t17.5 -50v-66q0 -18 -7 -34.5t-19 -29
t-28.5 -19.5t-35.5 -7h-98q-37 0 -63.5 26.5t-26.5 63.5v58h68v-58q0 -22 22 -22h98q22 0 22 22v58v0z" />
    <glyph glyph-name="s" unicode="&#xe004;" 
d="M265 148q0 17 -14 24l-141 68q-20 10 -37.5 28t-17.5 50v62q0 37 26.5 63.5t63.5 26.5h98q19 0 35.5 -7t28.5 -19.5t19 -29t7 -34.5v-58h-68v58q0 22 -22 22h-98q-22 0 -22 -22v-53q0 -18 14 -25l141 -68q20 -10 37.5 -28t17.5 -50v-66q0 -18 -7 -34.5t-19 -29
t-28.5 -19.5t-35.5 -7h-98q-37 0 -63.5 26.5t-26.5 63.5v58h68v-58q0 -22 22 -22h98q22 0 22 22v58v0z" />
    <glyph glyph-name="s" unicode="&#xe004;" 
d="M265 148q0 17 -14 24l-141 68q-20 10 -37.5 28t-17.5 50v62q0 37 26.5 63.5t63.5 26.5h98q19 0 35.5 -7t28.5 -19.5t19 -29t7 -34.5v-58h-68v58q0 22 -22 22h-98q-22 0 -22 -22v-53q0 -18 14 -25l141 -68q20 -10 37.5 -28t17.5 -50v-66q0 -18 -7 -34.5t-19 -29
t-28.5 -19.5t-35.5 -7h-98q-37 0 -63.5 26.5t-26.5 63.5v58h68v-58q0 -22 22 -22h98q22 0 22 22v58v0z" />
    <glyph glyph-name="t" unicode="t" horiz-adv-x="269" 
d="M242 0h-68q-37 0 -63.5 26.5t-26.5 63.5v312h-70v68h70v140h68v-140h90v-68h-90v-312q0 -22 22 -22h68v-68z" />
    <glyph glyph-name="u" unicode="u" 
d="M333 0h-68v45q-15 -45 -72 -45h-48q-37 0 -63.5 26.5t-26.5 63.5v380h68v-380q0 -22 22 -22h98q22 0 22 22v380h68v-470z" />
    <glyph glyph-name="v" unicode="v" horiz-adv-x="364" 
d="M347 470l-118 -470h-94l-118 470h71l94 -392l94 392h71z" />
    <glyph glyph-name="w" unicode="w" horiz-adv-x="520" 
d="M503 470l-98 -470h-80l-65 311l-65 -311h-80l-98 470h71l73 -371l74 371h50l74 -371l73 371h71z" />
    <glyph glyph-name="x" unicode="x" horiz-adv-x="364" 
d="M347 0h-79l-86 186l-87 -186h-78l122 232l-122 238h78l87 -189l86 189h79l-122 -238z" />
    <glyph glyph-name="y" unicode="y" horiz-adv-x="363" 
d="M346 470l-174 -620h-74l47 150l-128 470h70l94 -374l94 374h71z" />
    <glyph glyph-name="y" unicode="&#xe006;" horiz-adv-x="363" 
d="M346 470l-174 -620h-74l47 150l-128 470h70l94 -374l94 374h71z" />
    <glyph glyph-name="y" unicode="&#xe006;" horiz-adv-x="363" 
d="M346 470l-174 -620h-74l47 150l-128 470h70l94 -374l94 374h71z" />
    <glyph glyph-name="z" unicode="z" horiz-adv-x="332" 
d="M305 0h-278v68l191 334h-183v68h263v-68l-189 -334h196v-68z" />
    <glyph glyph-name="braceleft" unicode="{" horiz-adv-x="251" 
d="M128 -90q0 -12 12 -12h95v-49h-92q-26 0 -44.5 19t-18.5 45v375q0 13 -13 13h-51v48h51q13 0 13 13v374q0 26 18.5 45t44.5 19h92v-49h-95q-12 0 -12 -12v-362q0 -22 -11 -35t-26 -17q15 -4 26 -17.5t11 -35.5v-362z" />
    <glyph glyph-name="bar" unicode="|" horiz-adv-x="130" 
d="M50 -200v1000h30v-1000h-30z" />
    <glyph glyph-name="braceright" unicode="}" horiz-adv-x="251" 
d="M123 272q0 22 11 35t26 17q-15 4 -26 17.5t-11 35.5v362q0 12 -12 12h-95v49h92q26 0 44.5 -19t18.5 -45v-375q0 -13 13 -13h51v-48h-51q-13 0 -13 -13v-374q0 -26 -18.5 -45t-44.5 -19h-92v49h95q12 0 12 12v362z" />
    <glyph glyph-name="asciitilde" unicode="~" horiz-adv-x="324" 
d="M24 570l59 60q7 8 16 11.5t18 3.5q21 0 36 -15l55 -54l58 57l34 -35l-57 -58q-14 -15 -34 -15q-21 0 -36 15l-55 54l-59 -58z" />
    <glyph glyph-name="exclamdown" unicode="&#xa1;" horiz-adv-x="211" 
d="M68 295h75v-525h-75v525zM156 430q0 -21 -14.5 -35.5t-35.5 -14.5t-35.5 14.5t-14.5 35.5t14.5 35.5t35.5 14.5t35.5 -14.5t14.5 -35.5z" />
    <glyph glyph-name="cent" unicode="&#xa2;" horiz-adv-x="435" 
d="M130 190q0 -25 25 -25h125q25 0 25 25v82h75v-82q0 -42 -29 -71t-71 -29h-30v-90h-65v90h-30q-42 0 -71 29t-29 71v320q0 42 29 71t71 29h30v90h65v-90h30q42 0 71 -29t29 -71v-79h-75v79q0 25 -25 25h-125q-25 0 -25 -25v-320z" />
    <glyph glyph-name="sterling" unicode="&#xa3;" horiz-adv-x="454" 
d="M408 100q0 -21 -8 -39t-21.5 -31.5t-31.5 -21.5t-39 -8h-277v75h53v258h-50v75h50v192q0 21 7.5 39t21 31.5t32 21.5t39.5 8h74q21 0 39 -8t31.5 -21.5t21.5 -31.5t8 -39v-75h-74v75q0 25 -25 25h-76q-25 0 -25 -25v-192h75v-75h-75v-258h151q25 0 25 25v75h74v-75z" />
    <glyph glyph-name="currency" unicode="&#xa4;" horiz-adv-x="571" 
d="M356 392q0 22 -22 22h-98q-22 0 -22 -22v-98q0 -22 22 -22h98q22 0 22 22v98zM118 558l83 -83q8 3 16.5 5t18.5 2h98q17 0 36 -7l85 85l48 -48l-86 -86q3 -8 5 -16.5t2 -17.5v-98q0 -10 -2 -18.5t-5 -16.5l84 -84l-48 -48l-84 84q-15 -7 -35 -7h-98q-20 0 -34 7l-82 -82
l-48 48l81 81q-7 15 -7 36v98q0 20 7 35l-83 83z" />
    <glyph glyph-name="yen" unicode="&#xa5;" horiz-adv-x="426" 
d="M17 400h113l-104 300h79l109 -345l109 345h78l-106 -300h114v-60h-135l-24 -70v-50h159v-60h-159v-160h-75v160h-158v60h158v50l-24 70h-134v60z" />
    <glyph glyph-name="brokenbar" unicode="&#xa6;" horiz-adv-x="130" 
d="M50 400v400h30v-400h-30zM50 200h30v-400h-30v400z" />
    <glyph glyph-name="section" unicode="&#xa7;" 
d="M333 320q0 -26 -13 -47t-35 -32q14 -11 19.5 -29t5.5 -44v-78q0 -38 -26 -64t-64 -26h-52q-38 0 -64 26t-26 64v59h68v-59q0 -22 22 -22h52q22 0 22 22v79q0 15 -13 21l-104 47q-30 14 -50 36.5t-20 54.5v52q0 29 15.5 51.5t41.5 32.5q-34 26 -34 82v64q0 38 26 64t64 26
h52q38 0 64 -26t26 -64v-58h-68v58q0 22 -22 22h-52q-22 0 -22 -22v-62q0 -8 3 -14t11 -10l120 -60q23 -11 38 -30t15 -48v-66zM265 378q0 4 -2.5 10t-9.5 9l-110 53q-6 3 -13 0.5t-7 -12.5v-102q0 -9 3 -13.5t12 -9.5l108 -51q7 -3 13 0.5t6 12.5v103z" />
    <glyph glyph-name="dieresis" unicode="&#xa8;" 
d="M77 608q0 19 13.5 32.5t32.5 13.5t32.5 -13.5t13.5 -32.5t-13.5 -32.5t-32.5 -13.5t-32.5 13.5t-13.5 32.5zM219 608q0 19 13.5 32.5t32.5 13.5t32.5 -13.5t13.5 -32.5t-13.5 -32.5t-32.5 -13.5t-32.5 13.5t-13.5 32.5z" />
    <glyph glyph-name="copyright" unicode="&#xa9;" horiz-adv-x="797" 
d="M548 210q0 -26 -18.5 -45t-45.5 -19h-170q-27 0 -45.5 19t-18.5 45v280q0 26 18.5 45t45.5 19h170q27 0 45.5 -19t18.5 -45v-56h-48v60q0 11 -12 11h-178q-12 0 -12 -11v-288q0 -11 12 -11h178q12 0 12 11v60h48v-56zM757 350q0 -74 -28.5 -139.5t-77 -114.5t-114 -77
t-139.5 -28t-139.5 28t-114 77t-76.5 114.5t-28 139.5t28 139.5t76.5 114t114 77t139.5 28.5t139.5 -28.5t114 -77t77 -114t28.5 -139.5zM69 350q0 -68 26 -128t70.5 -104.5t104.5 -70.5t128 -26t128 26t104.5 70.5t70.5 104.5t26 128t-26 128t-70.5 104.5t-104.5 70.5
t-128 26t-128 -26t-104.5 -70.5t-70.5 -104.5t-26 -128z" />
    <glyph glyph-name="ordfeminine" unicode="&#xaa;" horiz-adv-x="362" 
d="M243 318q-4 -17 -21.5 -27.5t-37.5 -10.5h-37q-18 0 -35 7t-29.5 19.5t-20 29t-7.5 34.5v74q0 42 26.5 66t63.5 24h39q20 0 37.5 -10.5t21.5 -27.5v114q0 11 -7.5 18.5t-18.5 7.5h-117v64h117q38 0 64 -26t26 -64v-330h-64v38zM243 444q0 11 -7.5 18.5t-18.5 7.5h-71
q-11 0 -18.5 -7.5t-7.5 -18.5v-74q0 -11 7.5 -18.5t18.5 -7.5h71q11 0 18.5 7.5t7.5 18.5v74zM55 196h252v-64h-252v64z" />
    <glyph glyph-name="guillemotleft" unicode="&#xab;" horiz-adv-x="373" 
d="M186 150l-34 -36l-121 121l121 121l34 -36l-85 -85zM342 150l-35 -36l-121 121l121 121l35 -36l-85 -85z" />
    <glyph glyph-name="logicalnot" unicode="&#xac;" horiz-adv-x="460" 
d="M430 111h-67v180h-333v67h400v-247z" />
    <glyph glyph-name="uni00AD" unicode="&#xad;" horiz-adv-x="271" 
d="M241 201h-211v68h211v-68z" />
    <glyph glyph-name="registered" unicode="&#xae;" horiz-adv-x="438" 
d="M263 533v64h-87v-64h87zM295 430h-35l-45 71h-39v-71h-32v199h123q28 0 28 -28v-67q0 -14 -7 -23.5t-21 -9.5h-17zM398 529q0 -37 -14 -69.5t-38.5 -57t-57 -38.5t-69.5 -14t-69.5 14t-57 38.5t-38.5 57t-14 69.5t14 70t38.5 57.5t57 38.5t69.5 14t69.5 -14t57 -38.5
t38.5 -57.5t14 -70zM374 529q0 32 -12 60.5t-33 49.5t-49.5 33t-60.5 12t-60 -12t-49 -33t-33.5 -49.5t-12.5 -60.5t12.5 -60t33.5 -49t49 -33t60 -12t60.5 12t49.5 33t33 49t12 60z" />
    <glyph glyph-name="macron" unicode="&#xaf;" 
d="M298 581h-208v50h208v-50z" />
    <glyph glyph-name="degree" unicode="&#xb0;" horiz-adv-x="248" 
d="M185 616q0 26 -17.5 43t-42.5 17q-26 0 -43 -17t-17 -43q0 -25 17 -42.5t43 -17.5q25 0 42.5 17.5t17.5 42.5zM220 616q0 -20 -7.5 -37t-20.5 -30t-30.5 -20.5t-36.5 -7.5q-20 0 -38 7.5t-31 20.5t-20.5 30t-7.5 37q0 41 28 69t69 28q19 0 36.5 -7.5t30.5 -20.5t20.5 -31
t7.5 -38z" />
    <glyph glyph-name="plusminus" unicode="&#xb1;" horiz-adv-x="460" 
d="M30 66h164v146h-164v67h164v167h67v-167h169v-67h-169v-146h169v-67h-400v67z" />
    <glyph glyph-name="twosuperior" unicode="&#xb2;" horiz-adv-x="305" 
d="M105 335h145v-55h-200v80q0 31 17 53l128 163q5 6 5 20v39q0 10 -10 10h-75q-10 0 -10 -10v-54h-55v54q0 29 18 47t47 18h75q29 0 47 -18t18 -47v-39q0 -31 -17 -53l-128 -163q-5 -6 -5 -20v-25z" />
    <glyph glyph-name="threesuperior" unicode="&#xb3;" horiz-adv-x="305" 
d="M255 345q0 -29 -18 -47t-47 -18h-75q-29 0 -47 18t-18 47v40h55v-40q0 -10 10 -10h75q10 0 10 10v120q0 10 -10 10h-90v55h90q10 0 10 10v95q0 10 -10 10h-75q-10 0 -10 -10v-40h-55v40q0 29 18 47t47 18h75q29 0 47 -18t18 -47v-87q0 -17 -9 -29.5t-26 -17.5
q14 -4 24.5 -15t10.5 -31v-110z" />
    <glyph glyph-name="acute" unicode="&#xb4;" 
d="M239 688l35 -35l-125 -125l-35 35z" />
    <glyph glyph-name="uni00B5" unicode="&#xb5;" 
d="M55 -150v620h68v-380q0 -22 22 -22h98q22 0 22 22v380h68v-470h-68v45q-15 -45 -70 -45q-57 0 -72 45v-195h-68z" />
    <glyph glyph-name="paragraph" unicode="&#xb6;" horiz-adv-x="437" 
d="M334 662v-813h-38v813h-63v-813h-38v512q-35 0 -66 13.5t-54 36.5t-36.5 54t-13.5 66t13.5 65.5t36.5 53.5t54 36.5t66 13.5h217v-38h-78z" />
    <glyph glyph-name="periodcentered" unicode="&#xb7;" horiz-adv-x="190" 
d="M45 235q0 21 14.5 35.5t35.5 14.5t35.5 -14.5t14.5 -35.5t-14.5 -35.5t-35.5 -14.5t-35.5 14.5t-14.5 35.5z" />
    <glyph glyph-name="cedilla" unicode="&#xb8;" 
d="M262 -115q0 -16 -11.5 -28t-27.5 -12h-97v50h86v30h-61v80h50v-35h61v-85z" />
    <glyph glyph-name="onesuperior" unicode="&#xb9;" horiz-adv-x="259" 
d="M222 280h-185v55h65v310h-65v55h120v-365h65v-55z" />
    <glyph glyph-name="ordmasculine" unicode="&#xba;" horiz-adv-x="363" 
d="M308 370q0 -38 -26 -64t-64 -26h-73q-38 0 -64 26t-26 64v240q0 38 26 64t64 26h73q38 0 64 -26t26 -64v-240zM243 610q0 25 -25 25h-73q-25 0 -25 -25v-240q0 -25 25 -25h73q25 0 25 25v240zM55 196h252v-64h-252v64z" />
    <glyph glyph-name="guillemotright" unicode="&#xbb;" horiz-adv-x="373" 
d="M187 320l34 36l121 -121l-121 -121l-34 36l85 85zM31 320l35 36l121 -121l-121 -121l-35 36l85 85z" />
    <glyph glyph-name="onequarter" unicode="&#xbc;" horiz-adv-x="587" 
d="M37 0zM222 280h-185v55h65v310h-65v55h120v-365h65v-55zM438 700l-232 -700h-53l232 700h53zM465 147v172l-78 -172h78zM550 92h-30v-92h-55v92h-135v51l132 277h58v-273h30v-55z" />
    <glyph glyph-name="onehalf" unicode="&#xbd;" horiz-adv-x="638" 
d="M37 0zM222 280h-185v55h65v310h-65v55h120v-365h65v-55zM438 700l-232 -700h-53l232 700h53zM438 55h145v-55h-200v80q0 31 17 53l128 163q5 6 5 20v39q0 10 -10 10h-75q-10 0 -10 -10v-54h-55v54q0 29 18 47t47 18h75q29 0 47 -18t18 -47v-39q0 -31 -17 -53l-128 -163
q-5 -6 -5 -20v-25z" />
    <glyph glyph-name="threequarters" unicode="&#xbe;" horiz-adv-x="633" 
d="M50 0zM255 345q0 -29 -18 -47t-47 -18h-75q-29 0 -47 18t-18 47v40h55v-40q0 -10 10 -10h75q10 0 10 10v120q0 10 -10 10h-90v55h90q10 0 10 10v95q0 10 -10 10h-75q-10 0 -10 -10v-40h-55v40q0 29 18 47t47 18h75q29 0 47 -18t18 -47v-87q0 -17 -9 -29.5t-26 -17.5
q14 -4 24.5 -15t10.5 -31v-110zM484 700l-232 -700h-53l232 700h53zM511 147v172l-78 -172h78zM596 92h-30v-92h-55v92h-135v51l132 277h58v-273h30v-55z" />
    <glyph glyph-name="questiondown" unicode="&#xbf;" horiz-adv-x="385" 
d="M30 -53q0 27 9.5 46t29.5 40l120 122q8 8 8 19t-8 19l-53 53l53 52l51 -49q13 -13 21 -31t8 -39q0 -48 -30 -77l-122 -121q-5 -5 -8.5 -13.5t-3.5 -18.5v-79q0 -25 25 -25h125q25 0 25 25v88h75v-88q0 -42 -29 -71t-71 -29h-125q-42 0 -71 29t-29 71v77zM242 430
q0 -21 -14.5 -35.5t-35.5 -14.5t-35.5 14.5t-14.5 35.5t14.5 35.5t35.5 14.5t35.5 -14.5t14.5 -35.5z" />
    <glyph glyph-name="Agrave" unicode="&#xc0;" horiz-adv-x="425" 
d="M17 0zM309 113h-193l-23 -113h-76l150 700h91l150 -700h-76zM131 188h162l-81 395zM292 793l-35 -35l-125 125l35 35z" />
    <glyph glyph-name="Aacute" unicode="&#xc1;" horiz-adv-x="425" 
d="M17 0zM309 113h-193l-23 -113h-76l150 700h91l150 -700h-76zM131 188h162l-81 395zM257 918l35 -35l-125 -125l-35 35z" />
    <glyph glyph-name="Acircumflex" unicode="&#xc2;" horiz-adv-x="425" 
d="M17 0zM309 113h-193l-23 -113h-76l150 700h91l150 -700h-76zM131 188h162l-81 395zM333 794l-36 -36l-85 86l-85 -86l-36 36l121 120z" />
    <glyph glyph-name="Atilde" unicode="&#xc3;" horiz-adv-x="425" 
d="M17 0zM309 113h-193l-23 -113h-76l150 700h91l150 -700h-76zM131 188h162l-81 395zM74 822l59 60q7 8 16 11.5t18 3.5q21 0 36 -15l55 -54l58 57l34 -35l-57 -58q-14 -15 -34 -15q-21 0 -36 15l-55 54l-59 -58z" />
    <glyph glyph-name="Adieresis" unicode="&#xc4;" horiz-adv-x="425" 
d="M17 0zM309 113h-193l-23 -113h-76l150 700h91l150 -700h-76zM131 188h162l-81 395zM95 838q0 19 13.5 32.5t32.5 13.5t32.5 -13.5t13.5 -32.5t-13.5 -32.5t-32.5 -13.5t-32.5 13.5t-13.5 32.5zM237 838q0 19 13.5 32.5t32.5 13.5t32.5 -13.5t13.5 -32.5t-13.5 -32.5
t-32.5 -13.5t-32.5 13.5t-13.5 32.5z" />
    <glyph glyph-name="Aring" unicode="&#xc5;" horiz-adv-x="425" 
d="M17 0zM309 113h-193l-23 -113h-76l150 700h91l150 -700h-76zM131 188h162l-81 395zM290 827q0 -32 -22.5 -55t-54.5 -23t-55 23t-23 55t23 54.5t55 22.5t54.5 -22.5t22.5 -54.5zM172 827q0 -17 12 -29t29 -12t29 12t12 29t-12 29t-29 12t-29 -12t-12 -29z" />
    <glyph glyph-name="AE" unicode="&#xc6;" horiz-adv-x="645" 
d="M339 188v392l-164 -392h164zM614 0h-275v113h-197l-50 -113h-83l307 700h298v-75h-200v-217h150v-75h-150v-258h200v-75z" />
    <glyph glyph-name="Ccedilla" unicode="&#xc7;" horiz-adv-x="435" 
d="M285 -115q0 -16 -11.5 -28t-27.5 -12h-97v50h86v30h-61v75h-19q-42 0 -71 29t-29 71v500q0 42 29 71t71 29h125q42 0 71 -29t29 -71v-88h-75v88q0 25 -25 25h-125q-25 0 -25 -25v-500q0 -25 25 -25h125q25 0 25 25v88h75v-88q0 -42 -29 -71t-71 -29h-56v-30h61v-85z" />
    <glyph glyph-name="Egrave" unicode="&#xc8;" horiz-adv-x="360" 
d="M55 0zM330 0h-275v700h275v-75h-200v-217h150v-75h-150v-258h200v-75zM273 793l-35 -35l-125 125l35 35z" />
    <glyph glyph-name="Eacute" unicode="&#xc9;" horiz-adv-x="360" 
d="M55 0zM330 0h-275v700h275v-75h-200v-217h150v-75h-150v-258h200v-75zM238 918l35 -35l-125 -125l-35 35z" />
    <glyph glyph-name="Ecircumflex" unicode="&#xca;" horiz-adv-x="360" 
d="M55 0zM330 0h-275v700h275v-75h-200v-217h150v-75h-150v-258h200v-75zM314 794l-36 -36l-85 86l-85 -86l-36 36l121 120z" />
    <glyph glyph-name="Edieresis" unicode="&#xcb;" horiz-adv-x="360" 
d="M55 0zM330 0h-275v700h275v-75h-200v-217h150v-75h-150v-258h200v-75zM76 838q0 19 13.5 32.5t32.5 13.5t32.5 -13.5t13.5 -32.5t-13.5 -32.5t-32.5 -13.5t-32.5 13.5t-13.5 32.5zM218 838q0 19 13.5 32.5t32.5 13.5t32.5 -13.5t13.5 -32.5t-13.5 -32.5t-32.5 -13.5
t-32.5 13.5t-13.5 32.5z" />
    <glyph glyph-name="Igrave" unicode="&#xcc;" horiz-adv-x="185" 
d="M13 0zM130 0h-75v700h75v-700zM173 793l-35 -35l-125 125l35 35z" />
    <glyph glyph-name="Iacute" unicode="&#xcd;" horiz-adv-x="185" 
d="M13 0zM130 0h-75v700h75v-700zM138 918l35 -35l-125 -125l-35 35z" />
    <glyph glyph-name="Icircumflex" unicode="&#xce;" horiz-adv-x="185" 
d="M0 0zM130 0h-75v700h75v-700zM214 794l-36 -36l-85 86l-85 -86l-36 36l121 120z" />
    <glyph glyph-name="Idieresis" unicode="&#xcf;" horiz-adv-x="185" 
d="M0 0zM130 0h-75v700h75v-700zM-24 838q0 19 13.5 32.5t32.5 13.5t32.5 -13.5t13.5 -32.5t-13.5 -32.5t-32.5 -13.5t-32.5 13.5t-13.5 32.5zM118 838q0 19 13.5 32.5t32.5 13.5t32.5 -13.5t13.5 -32.5t-13.5 -32.5t-32.5 -13.5t-32.5 13.5t-13.5 32.5z" />
    <glyph glyph-name="Eth" unicode="&#xd0;" horiz-adv-x="435" 
d="M380 100q0 -42 -29 -71t-71 -29h-225v345h-65v50h65v305h225q42 0 71 -29t29 -71v-500zM198 345h-68v-270h150q25 0 25 25v500q0 25 -25 25h-150v-230h68v-50z" />
    <glyph glyph-name="Ntilde" unicode="&#xd1;" horiz-adv-x="435" 
d="M55 0zM380 0h-63l-187 518v-518h-75v700h83l167 -472v472h75v-700zM79 822l59 60q7 8 16 11.5t18 3.5q21 0 36 -15l55 -54l58 57l34 -35l-57 -58q-14 -15 -34 -15q-21 0 -36 15l-55 54l-59 -58z" />
    <glyph glyph-name="Ograve" unicode="&#xd2;" horiz-adv-x="435" 
d="M55 0zM305 600q0 25 -25 25h-125q-25 0 -25 -25v-500q0 -25 25 -25h125q25 0 25 25v500zM380 100q0 -42 -29 -71t-71 -29h-125q-42 0 -71 29t-29 71v500q0 42 29 71t71 29h125q42 0 71 -29t29 -71v-500zM297 793l-35 -35l-125 125l35 35z" />
    <glyph glyph-name="Oacute" unicode="&#xd3;" horiz-adv-x="435" 
d="M55 0zM305 600q0 25 -25 25h-125q-25 0 -25 -25v-500q0 -25 25 -25h125q25 0 25 25v500zM380 100q0 -42 -29 -71t-71 -29h-125q-42 0 -71 29t-29 71v500q0 42 29 71t71 29h125q42 0 71 -29t29 -71v-500zM262 918l35 -35l-125 -125l-35 35z" />
    <glyph glyph-name="Ocircumflex" unicode="&#xd4;" horiz-adv-x="435" 
d="M55 0zM305 600q0 25 -25 25h-125q-25 0 -25 -25v-500q0 -25 25 -25h125q25 0 25 25v500zM380 100q0 -42 -29 -71t-71 -29h-125q-42 0 -71 29t-29 71v500q0 42 29 71t71 29h125q42 0 71 -29t29 -71v-500zM338 794l-36 -36l-85 86l-85 -86l-36 36l121 120z" />
    <glyph glyph-name="Otilde" unicode="&#xd5;" horiz-adv-x="435" 
d="M55 0zM305 600q0 25 -25 25h-125q-25 0 -25 -25v-500q0 -25 25 -25h125q25 0 25 25v500zM380 100q0 -42 -29 -71t-71 -29h-125q-42 0 -71 29t-29 71v500q0 42 29 71t71 29h125q42 0 71 -29t29 -71v-500zM79 822l59 60q7 8 16 11.5t18 3.5q21 0 36 -15l55 -54l58 57
l34 -35l-57 -58q-14 -15 -34 -15q-21 0 -36 15l-55 54l-59 -58z" />
    <glyph glyph-name="Odieresis" unicode="&#xd6;" horiz-adv-x="435" 
d="M55 0zM305 600q0 25 -25 25h-125q-25 0 -25 -25v-500q0 -25 25 -25h125q25 0 25 25v500zM380 100q0 -42 -29 -71t-71 -29h-125q-42 0 -71 29t-29 71v500q0 42 29 71t71 29h125q42 0 71 -29t29 -71v-500zM100 838q0 19 13.5 32.5t32.5 13.5t32.5 -13.5t13.5 -32.5
t-13.5 -32.5t-32.5 -13.5t-32.5 13.5t-13.5 32.5zM242 838q0 19 13.5 32.5t32.5 13.5t32.5 -13.5t13.5 -32.5t-13.5 -32.5t-32.5 -13.5t-32.5 13.5t-13.5 32.5z" />
    <glyph glyph-name="multiply" unicode="&#xd7;" horiz-adv-x="461" 
d="M397 353l-120 -119l118 -117l-48 -48l-117 117l-116 -116l-48 48l116 116l-118 118l48 48l118 -118l119 119z" />
    <glyph glyph-name="Oslash" unicode="&#xd8;" horiz-adv-x="435" 
d="M408 773l-46 -116q18 -26 18 -57v-500q0 -42 -29 -71t-71 -29h-125q-28 0 -50 13l-34 -87h-44l46 116q-8 13 -13 27t-5 31v500q0 42 29 71t71 29h125q26 0 50 -13l34 86h44zM130 184l171 430q-6 11 -21 11h-125q-25 0 -25 -25v-416zM305 514l-171 -429q6 -10 21 -10h125
q25 0 25 25v414z" />
    <glyph glyph-name="Ugrave" unicode="&#xd9;" horiz-adv-x="435" 
d="M55 0zM380 100q0 -42 -29 -71t-71 -29h-125q-42 0 -71 29t-29 71v600h75v-600q0 -25 25 -25h125q25 0 25 25v600h75v-600zM297 793l-35 -35l-125 125l35 35z" />
    <glyph glyph-name="Uacute" unicode="&#xda;" horiz-adv-x="435" 
d="M55 0zM380 100q0 -42 -29 -71t-71 -29h-125q-42 0 -71 29t-29 71v600h75v-600q0 -25 25 -25h125q25 0 25 25v600h75v-600zM262 918l35 -35l-125 -125l-35 35z" />
    <glyph glyph-name="Ucircumflex" unicode="&#xdb;" horiz-adv-x="435" 
d="M55 0zM380 100q0 -42 -29 -71t-71 -29h-125q-42 0 -71 29t-29 71v600h75v-600q0 -25 25 -25h125q25 0 25 25v600h75v-600zM338 794l-36 -36l-85 86l-85 -86l-36 36l121 120z" />
    <glyph glyph-name="Udieresis" unicode="&#xdc;" horiz-adv-x="435" 
d="M55 0zM380 100q0 -42 -29 -71t-71 -29h-125q-42 0 -71 29t-29 71v600h75v-600q0 -25 25 -25h125q25 0 25 25v600h75v-600zM100 838q0 19 13.5 32.5t32.5 13.5t32.5 -13.5t13.5 -32.5t-13.5 -32.5t-32.5 -13.5t-32.5 13.5t-13.5 32.5zM242 838q0 19 13.5 32.5t32.5 13.5
t32.5 -13.5t13.5 -32.5t-13.5 -32.5t-32.5 -13.5t-32.5 13.5t-13.5 32.5z" />
    <glyph glyph-name="Yacute" unicode="&#xdd;" horiz-adv-x="384" 
d="M5 0zM379 700l-151 -430v-270h-74v270l-149 430h79l108 -345l109 345h78zM238 918l35 -35l-125 -125l-35 35z" />
    <glyph glyph-name="Thorn" unicode="&#xde;" horiz-adv-x="410" 
d="M305 462q0 25 -25 25h-150v-282h150q25 0 25 25v232zM380 230q0 -21 -8 -39t-21.5 -31.5t-31.5 -21.5t-39 -8h-150v-130h-75v700h75v-138h150q21 0 39 -8t31.5 -21.5t21.5 -31.5t8 -39v-232z" />
    <glyph glyph-name="germandbls" unicode="&#xdf;" 
d="M333 90q0 -38 -26 -64t-64 -26h-49v68h49q22 0 22 22v290q0 23 -22 23h-49v67h49q22 0 22 22v118q0 22 -22 22h-98q-22 0 -22 -22v-610h-68v610q0 37 26.5 63.5t63.5 26.5h98q19 0 35.5 -7t28.5 -19.5t19 -29t7 -34.5v-95q0 -36 -17 -57t-39 -21q22 0 39 -21t17 -57v-269
z" />
    <glyph glyph-name="agrave" unicode="&#xe0;" 
d="M55 0zM265 190q0 22 -22 22h-97q-22 0 -22 -22v-100q0 -22 22 -22h97q22 0 22 22v100zM333 0h-68v38q-5 -17 -20.5 -27.5t-38.5 -10.5h-59q-18 0 -35 7t-29.5 19.5t-20 29t-7.5 34.5v100q0 40 26 65t64 25h61q23 0 38.5 -10.5t20.5 -27.5v138q0 22 -22 22h-154v68h154
q19 0 35.5 -7t28.5 -19.5t19 -29t7 -34.5v-380zM274 563l-35 -35l-125 125l35 35z" />
    <glyph glyph-name="aacute" unicode="&#xe1;" 
d="M55 0zM265 190q0 22 -22 22h-97q-22 0 -22 -22v-100q0 -22 22 -22h97q22 0 22 22v100zM333 0h-68v38q-5 -17 -20.5 -27.5t-38.5 -10.5h-59q-18 0 -35 7t-29.5 19.5t-20 29t-7.5 34.5v100q0 40 26 65t64 25h61q23 0 38.5 -10.5t20.5 -27.5v138q0 22 -22 22h-154v68h154
q19 0 35.5 -7t28.5 -19.5t19 -29t7 -34.5v-380zM239 688l35 -35l-125 -125l-35 35z" />
    <glyph glyph-name="acircumflex" unicode="&#xe2;" 
d="M55 0zM265 190q0 22 -22 22h-97q-22 0 -22 -22v-100q0 -22 22 -22h97q22 0 22 22v100zM333 0h-68v38q-5 -17 -20.5 -27.5t-38.5 -10.5h-59q-18 0 -35 7t-29.5 19.5t-20 29t-7.5 34.5v100q0 40 26 65t64 25h61q23 0 38.5 -10.5t20.5 -27.5v138q0 22 -22 22h-154v68h154
q19 0 35.5 -7t28.5 -19.5t19 -29t7 -34.5v-380zM315 564l-36 -36l-85 86l-85 -86l-36 36l121 120z" />
    <glyph glyph-name="atilde" unicode="&#xe3;" 
d="M55 0zM265 190q0 22 -22 22h-97q-22 0 -22 -22v-100q0 -22 22 -22h97q22 0 22 22v100zM333 0h-68v38q-5 -17 -20.5 -27.5t-38.5 -10.5h-59q-18 0 -35 7t-29.5 19.5t-20 29t-7.5 34.5v100q0 40 26 65t64 25h61q23 0 38.5 -10.5t20.5 -27.5v138q0 22 -22 22h-154v68h154
q19 0 35.5 -7t28.5 -19.5t19 -29t7 -34.5v-380zM56 592l59 60q7 8 16 11.5t18 3.5q21 0 36 -15l55 -54l58 57l34 -35l-57 -58q-14 -15 -34 -15q-21 0 -36 15l-55 54l-59 -58z" />
    <glyph glyph-name="adieresis" unicode="&#xe4;" 
d="M55 0zM265 190q0 22 -22 22h-97q-22 0 -22 -22v-100q0 -22 22 -22h97q22 0 22 22v100zM333 0h-68v38q-5 -17 -20.5 -27.5t-38.5 -10.5h-59q-18 0 -35 7t-29.5 19.5t-20 29t-7.5 34.5v100q0 40 26 65t64 25h61q23 0 38.5 -10.5t20.5 -27.5v138q0 22 -22 22h-154v68h154
q19 0 35.5 -7t28.5 -19.5t19 -29t7 -34.5v-380zM77 608q0 19 13.5 32.5t32.5 13.5t32.5 -13.5t13.5 -32.5t-13.5 -32.5t-32.5 -13.5t-32.5 13.5t-13.5 32.5zM219 608q0 19 13.5 32.5t32.5 13.5t32.5 -13.5t13.5 -32.5t-13.5 -32.5t-32.5 -13.5t-32.5 13.5t-13.5 32.5z" />
    <glyph glyph-name="aring" unicode="&#xe5;" 
d="M55 0zM265 190q0 22 -22 22h-97q-22 0 -22 -22v-100q0 -22 22 -22h97q22 0 22 22v100zM333 0h-68v38q-5 -17 -20.5 -27.5t-38.5 -10.5h-59q-18 0 -35 7t-29.5 19.5t-20 29t-7.5 34.5v100q0 40 26 65t64 25h61q23 0 38.5 -10.5t20.5 -27.5v138q0 22 -22 22h-154v68h154
q19 0 35.5 -7t28.5 -19.5t19 -29t7 -34.5v-380zM272 597q0 -32 -22.5 -55t-54.5 -23t-55 23t-23 55t23 54.5t55 22.5t54.5 -22.5t22.5 -54.5zM154 597q0 -17 12 -29t29 -12t29 12t12 29t-12 29t-29 12t-29 -12t-12 -29z" />
    <glyph glyph-name="ae" unicode="&#xe6;" horiz-adv-x="598" 
d="M265 189q0 22 -22 22h-97q-22 0 -22 -22v-99q0 -22 22 -22h97q22 0 22 22v99zM475 259v121q0 22 -22 22h-98q-22 0 -22 -22v-121h142zM265 380q0 22 -22 22h-154v68h150q52 0 60 -48q7 48 61 48h93q37 0 63.5 -26.5t26.5 -63.5v-188h-210v-102q0 -22 22 -22h155v-68h-150
q-54 0 -61 48q-8 -48 -60 -48h-92q-18 0 -35 7t-29.5 19.5t-20 29t-7.5 34.5v99q0 40 26 65t64 25h61q23 0 38.5 -10.5t20.5 -27.5v139z" />
    <glyph glyph-name="ccedilla" unicode="&#xe7;" 
d="M262 -115q0 -16 -11.5 -28t-27.5 -12h-97v50h86v30h-61v75h-6q-37 0 -63.5 26.5t-26.5 63.5v290q0 37 26.5 63.5t63.5 26.5h98q19 0 35.5 -7t28.5 -19.5t19 -29t7 -34.5v-78h-68v78q0 22 -22 22h-98q-22 0 -22 -22v-290q0 -22 22 -22h98q22 0 22 22v79h68v-79
q0 -18 -7 -34.5t-19 -29t-28.5 -19.5t-35.5 -7h-42v-30h61v-85z" />
    <glyph glyph-name="egrave" unicode="&#xe8;" 
d="M55 0zM265 259v121q0 22 -22 22h-98q-22 0 -22 -22v-121h142zM333 192h-210v-102q0 -22 22 -22h155v-68h-155q-37 0 -63.5 26.5t-26.5 63.5v290q0 37 26.5 63.5t63.5 26.5h98q19 0 35.5 -7t28.5 -19.5t19 -29t7 -34.5v-188zM274 563l-35 -35l-125 125l35 35z" />
    <glyph glyph-name="eacute" unicode="&#xe9;" 
d="M55 0zM265 259v121q0 22 -22 22h-98q-22 0 -22 -22v-121h142zM333 192h-210v-102q0 -22 22 -22h155v-68h-155q-37 0 -63.5 26.5t-26.5 63.5v290q0 37 26.5 63.5t63.5 26.5h98q19 0 35.5 -7t28.5 -19.5t19 -29t7 -34.5v-188zM239 688l35 -35l-125 -125l-35 35z" />
    <glyph glyph-name="ecircumflex" unicode="&#xea;" 
d="M55 0zM265 259v121q0 22 -22 22h-98q-22 0 -22 -22v-121h142zM333 192h-210v-102q0 -22 22 -22h155v-68h-155q-37 0 -63.5 26.5t-26.5 63.5v290q0 37 26.5 63.5t63.5 26.5h98q19 0 35.5 -7t28.5 -19.5t19 -29t7 -34.5v-188zM315 564l-36 -36l-85 86l-85 -86l-36 36
l121 120z" />
    <glyph glyph-name="edieresis" unicode="&#xeb;" 
d="M55 0zM265 259v121q0 22 -22 22h-98q-22 0 -22 -22v-121h142zM333 192h-210v-102q0 -22 22 -22h155v-68h-155q-37 0 -63.5 26.5t-26.5 63.5v290q0 37 26.5 63.5t63.5 26.5h98q19 0 35.5 -7t28.5 -19.5t19 -29t7 -34.5v-188zM77 608q0 19 13.5 32.5t32.5 13.5t32.5 -13.5
t13.5 -32.5t-13.5 -32.5t-32.5 -13.5t-32.5 13.5t-13.5 32.5zM219 608q0 19 13.5 32.5t32.5 13.5t32.5 -13.5t13.5 -32.5t-13.5 -32.5t-32.5 -13.5t-32.5 13.5t-13.5 32.5z" />
    <glyph glyph-name="igrave" unicode="&#xec;" horiz-adv-x="178" 
d="M10 0zM123 0h-68v470h68v-470zM170 563l-35 -35l-125 125l35 35z" />
    <glyph glyph-name="iacute" unicode="&#xed;" horiz-adv-x="178" 
d="M10 0zM123 0h-68v470h68v-470zM135 688l35 -35l-125 -125l-35 35z" />
    <glyph glyph-name="icircumflex" unicode="&#xee;" horiz-adv-x="178" 
d="M0 0zM123 0h-68v470h68v-470zM211 564l-36 -36l-85 86l-85 -86l-36 36l121 120z" />
    <glyph glyph-name="idieresis" unicode="&#xef;" horiz-adv-x="178" 
d="M0 0zM123 0h-68v470h68v-470zM-27 608q0 19 13.5 32.5t32.5 13.5t32.5 -13.5t13.5 -32.5t-13.5 -32.5t-32.5 -13.5t-32.5 13.5t-13.5 32.5zM115 608q0 19 13.5 32.5t32.5 13.5t32.5 -13.5t13.5 -32.5t-13.5 -32.5t-32.5 -13.5t-32.5 13.5t-13.5 32.5z" />
    <glyph glyph-name="eth" unicode="&#xf0;" horiz-adv-x="378" 
d="M324 616l-57 -27l56 -119q10 -20 13 -39.5t3 -50.5v-290q0 -18 -7 -34.5t-19 -29t-28.5 -19.5t-35.5 -7h-98q-37 0 -63.5 26.5t-26.5 63.5v290q0 37 26.5 63.5t63.5 26.5h52q21 0 34.5 -6t21.5 -15l-53 112l-73 -34l-27 59l73 34l-38 80h74l24 -52l58 27zM271 380
q0 22 -22 22h-98q-22 0 -22 -22v-290q0 -22 22 -22h98q22 0 22 22v290z" />
    <glyph glyph-name="ntilde" unicode="&#xf1;" 
d="M55 0zM333 0h-68v380q0 22 -22 22h-98q-22 0 -22 -22v-380h-68v470h68v-45q15 45 72 45h48q38 0 64 -26t26 -64v-380zM56 592l59 60q7 8 16 11.5t18 3.5q21 0 36 -15l55 -54l58 57l34 -35l-57 -58q-14 -15 -34 -15q-21 0 -36 15l-55 54l-59 -58z" />
    <glyph glyph-name="ograve" unicode="&#xf2;" 
d="M55 0zM265 380q0 22 -22 22h-98q-22 0 -22 -22v-290q0 -22 22 -22h98q22 0 22 22v290zM333 90q0 -18 -7 -34.5t-19 -29t-28.5 -19.5t-35.5 -7h-98q-37 0 -63.5 26.5t-26.5 63.5v290q0 19 7 35.5t19.5 28.5t29 19t34.5 7h98q38 0 64 -26t26 -64v-290zM274 563l-35 -35
l-125 125l35 35z" />
    <glyph glyph-name="oacute" unicode="&#xf3;" 
d="M55 0zM265 380q0 22 -22 22h-98q-22 0 -22 -22v-290q0 -22 22 -22h98q22 0 22 22v290zM333 90q0 -18 -7 -34.5t-19 -29t-28.5 -19.5t-35.5 -7h-98q-37 0 -63.5 26.5t-26.5 63.5v290q0 19 7 35.5t19.5 28.5t29 19t34.5 7h98q38 0 64 -26t26 -64v-290zM239 688l35 -35
l-125 -125l-35 35z" />
    <glyph glyph-name="ocircumflex" unicode="&#xf4;" 
d="M55 0zM265 380q0 22 -22 22h-98q-22 0 -22 -22v-290q0 -22 22 -22h98q22 0 22 22v290zM333 90q0 -18 -7 -34.5t-19 -29t-28.5 -19.5t-35.5 -7h-98q-37 0 -63.5 26.5t-26.5 63.5v290q0 19 7 35.5t19.5 28.5t29 19t34.5 7h98q38 0 64 -26t26 -64v-290zM315 564l-36 -36
l-85 86l-85 -86l-36 36l121 120z" />
    <glyph glyph-name="otilde" unicode="&#xf5;" 
d="M55 0zM265 380q0 22 -22 22h-98q-22 0 -22 -22v-290q0 -22 22 -22h98q22 0 22 22v290zM333 90q0 -18 -7 -34.5t-19 -29t-28.5 -19.5t-35.5 -7h-98q-37 0 -63.5 26.5t-26.5 63.5v290q0 19 7 35.5t19.5 28.5t29 19t34.5 7h98q38 0 64 -26t26 -64v-290zM56 592l59 60
q7 8 16 11.5t18 3.5q21 0 36 -15l55 -54l58 57l34 -35l-57 -58q-14 -15 -34 -15q-21 0 -36 15l-55 54l-59 -58z" />
    <glyph glyph-name="odieresis" unicode="&#xf6;" 
d="M55 0zM265 380q0 22 -22 22h-98q-22 0 -22 -22v-290q0 -22 22 -22h98q22 0 22 22v290zM333 90q0 -18 -7 -34.5t-19 -29t-28.5 -19.5t-35.5 -7h-98q-37 0 -63.5 26.5t-26.5 63.5v290q0 19 7 35.5t19.5 28.5t29 19t34.5 7h98q38 0 64 -26t26 -64v-290zM77 608
q0 19 13.5 32.5t32.5 13.5t32.5 -13.5t13.5 -32.5t-13.5 -32.5t-32.5 -13.5t-32.5 13.5t-13.5 32.5zM219 608q0 19 13.5 32.5t32.5 13.5t32.5 -13.5t13.5 -32.5t-13.5 -32.5t-32.5 -13.5t-32.5 13.5t-13.5 32.5z" />
    <glyph glyph-name="divide" unicode="&#xf7;" horiz-adv-x="460" 
d="M30 201v67h400v-67h-400zM177 64q0 21 14.5 35.5t35.5 14.5t35.5 -14.5t14.5 -35.5t-14.5 -35.5t-35.5 -14.5t-35.5 14.5t-14.5 35.5zM177 404q0 21 14.5 35.5t35.5 14.5t35.5 -14.5t14.5 -35.5t-14.5 -35.5t-35.5 -14.5t-35.5 14.5t-14.5 35.5z" />
    <glyph glyph-name="oslash" unicode="&#xf8;" 
d="M66 47q-11 20 -11 43v290q0 19 7 35.5t19.5 28.5t29 19t34.5 7h98q31 0 54 -17l40 70h43l-57 -101q10 -20 10 -42v-290q0 -18 -7 -34.5t-19 -29t-28.5 -19.5t-35.5 -7h-98q-30 0 -53 17l-40 -70h-43zM123 147l139 245q-4 10 -19 10h-98q-22 0 -22 -22v-233zM265 321
l-139 -244q4 -9 19 -9h98q22 0 22 22v231z" />
    <glyph glyph-name="ugrave" unicode="&#xf9;" 
d="M55 0zM333 0h-68v45q-15 -45 -72 -45h-48q-37 0 -63.5 26.5t-26.5 63.5v380h68v-380q0 -22 22 -22h98q22 0 22 22v380h68v-470zM274 563l-35 -35l-125 125l35 35z" />
    <glyph glyph-name="uacute" unicode="&#xfa;" 
d="M55 0zM333 0h-68v45q-15 -45 -72 -45h-48q-37 0 -63.5 26.5t-26.5 63.5v380h68v-380q0 -22 22 -22h98q22 0 22 22v380h68v-470zM239 688l35 -35l-125 -125l-35 35z" />
    <glyph glyph-name="ucircumflex" unicode="&#xfb;" 
d="M55 0zM333 0h-68v45q-15 -45 -72 -45h-48q-37 0 -63.5 26.5t-26.5 63.5v380h68v-380q0 -22 22 -22h98q22 0 22 22v380h68v-470zM315 564l-36 -36l-85 86l-85 -86l-36 36l121 120z" />
    <glyph glyph-name="udieresis" unicode="&#xfc;" 
d="M55 0zM333 0h-68v45q-15 -45 -72 -45h-48q-37 0 -63.5 26.5t-26.5 63.5v380h68v-380q0 -22 22 -22h98q22 0 22 22v380h68v-470zM77 608q0 19 13.5 32.5t32.5 13.5t32.5 -13.5t13.5 -32.5t-13.5 -32.5t-32.5 -13.5t-32.5 13.5t-13.5 32.5zM219 608q0 19 13.5 32.5
t32.5 13.5t32.5 -13.5t13.5 -32.5t-13.5 -32.5t-32.5 -13.5t-32.5 13.5t-13.5 32.5z" />
    <glyph glyph-name="yacute" unicode="&#xfd;" horiz-adv-x="363" 
d="M17 0zM346 470l-174 -620h-74l47 150l-128 470h70l94 -374l94 374h71zM227 688l35 -35l-125 -125l-35 35z" />
    <glyph glyph-name="thorn" unicode="&#xfe;" horiz-adv-x="378" 
d="M271 380q0 22 -22 22h-98q-22 0 -22 -22v-290q0 -22 22 -22h98q22 0 22 22v290zM339 90q0 -37 -26.5 -63.5t-63.5 -26.5h-48q-56 0 -72 45v-195h-68v850h68v-275q15 45 72 45h48q37 0 63.5 -26.5t26.5 -63.5v-290z" />
    <glyph glyph-name="ydieresis" unicode="&#xff;" horiz-adv-x="363" 
d="M17 0zM346 470l-174 -620h-74l47 150l-128 470h70l94 -374l94 374h71zM65 608q0 19 13.5 32.5t32.5 13.5t32.5 -13.5t13.5 -32.5t-13.5 -32.5t-32.5 -13.5t-32.5 13.5t-13.5 32.5zM207 608q0 19 13.5 32.5t32.5 13.5t32.5 -13.5t13.5 -32.5t-13.5 -32.5t-32.5 -13.5
t-32.5 13.5t-13.5 32.5z" />
    <glyph glyph-name="OE" unicode="&#x152;" horiz-adv-x="609" 
d="M579 0h-237v54q-4 -22 -19.5 -38t-41.5 -16h-126q-21 0 -39.5 8t-32 21.5t-21 31.5t-7.5 39v500q0 21 7.5 39t21 31.5t32 21.5t39.5 8h126q26 0 41.5 -16t19.5 -38v54h237v-75h-200v-217h150v-75h-150v-258h200v-75zM304 600q0 25 -25 25h-125q-25 0 -25 -25v-500
q0 -25 25 -25h125q25 0 25 25v500z" />
    <glyph glyph-name="oe" unicode="&#x153;" horiz-adv-x="598" 
d="M475 380q0 22 -22 22h-98q-22 0 -22 -22v-119h142v119zM265 380q0 22 -22 22h-98q-22 0 -22 -22v-290q0 -22 22 -22h98q22 0 22 22v290zM453 470q38 0 64 -26t26 -64v-187h-210v-103q0 -22 22 -22h155v-68h-149q-54 0 -61 48q-8 -48 -60 -48h-95q-38 0 -64 26t-26 64v290
q0 38 26 64t64 26h95q52 0 60 -48q7 48 61 48h92z" />
    <glyph glyph-name="Ydieresis" unicode="&#x178;" horiz-adv-x="384" 
d="M5 0zM379 700l-151 -430v-270h-74v270l-149 430h79l108 -345l109 345h78zM76 838q0 19 13.5 32.5t32.5 13.5t32.5 -13.5t13.5 -32.5t-13.5 -32.5t-32.5 -13.5t-32.5 13.5t-13.5 32.5zM218 838q0 19 13.5 32.5t32.5 13.5t32.5 -13.5t13.5 -32.5t-13.5 -32.5t-32.5 -13.5
t-32.5 13.5t-13.5 32.5z" />
    <glyph glyph-name="tilde" unicode="&#x2dc;" 
d="M56 592l59 60q7 8 16 11.5t18 3.5q21 0 36 -15l55 -54l58 57l34 -35l-57 -58q-14 -15 -34 -15q-21 0 -36 15l-55 54l-59 -58z" />
    <glyph glyph-name="endash" unicode="&#x2013;" horiz-adv-x="438" 
d="M408 201h-378v68h378v-68z" />
    <glyph glyph-name="emdash" unicode="&#x2014;" horiz-adv-x="642" 
d="M612 201h-582v68h582v-68z" />
    <glyph glyph-name="quoteleft" unicode="&#x2018;" horiz-adv-x="186" 
d="M43 560q0 10 4 20l56 120h35l-31 -93q11 -2 23.5 -14t12.5 -33t-14.5 -35.5t-35.5 -14.5t-35.5 14.5t-14.5 35.5z" />
    <glyph glyph-name="quoteright" unicode="&#x2019;" horiz-adv-x="186" 
d="M143 660q0 -10 -4 -20l-56 -120h-35l31 93q-11 2 -23.5 14t-12.5 33t14.5 35.5t35.5 14.5t35.5 -14.5t14.5 -35.5z" />
    <glyph glyph-name="quotedblleft" unicode="&#x201c;" horiz-adv-x="322" 
d="M43 560q0 10 4 20l56 120h35l-31 -93q11 -2 23.5 -14t12.5 -33t-14.5 -35.5t-35.5 -14.5t-35.5 14.5t-14.5 35.5zM179 560q0 10 4 20l56 120h35l-31 -93q11 -2 23.5 -14t12.5 -33t-14.5 -35.5t-35.5 -14.5t-35.5 14.5t-14.5 35.5z" />
    <glyph glyph-name="quotedblright" unicode="&#x201d;" horiz-adv-x="322" 
d="M279 660q0 -10 -4 -20l-56 -120h-35l31 93q-11 2 -23.5 14t-12.5 33t14.5 35.5t35.5 14.5t35.5 -14.5t14.5 -35.5zM143 660q0 -10 -4 -20l-56 -120h-35l31 93q-11 2 -23.5 14t-12.5 33t14.5 35.5t35.5 14.5t35.5 -14.5t14.5 -35.5z" />
    <glyph glyph-name="quotedblbase" unicode="&#x201e;" horiz-adv-x="318" 
d="M277 40q0 -10 -4 -20l-56 -120h-35l31 93q-11 2 -23.5 14t-12.5 33t14.5 35.5t35.5 14.5t35.5 -14.5t14.5 -35.5zM141 40q0 -10 -4 -20l-56 -120h-35l31 93q-11 2 -23.5 14t-12.5 33t14.5 35.5t35.5 14.5t35.5 -14.5t14.5 -35.5z" />
    <glyph glyph-name="bullet" unicode="&#x2022;" horiz-adv-x="380" 
d="M334 235q0 -30 -11.5 -56.5t-31 -46t-45.5 -31t-56 -11.5t-56.5 11.5t-46 31t-30.5 46t-11 56.5t11 56.5t30.5 46t46 31t56.5 11.5t56 -11.5t45.5 -31t31 -46t11.5 -56.5z" />
    <glyph glyph-name="ellipsis" unicode="&#x2026;" horiz-adv-x="570" 
d="M45 40q0 21 14.5 35.5t35.5 14.5t35.5 -14.5t14.5 -35.5t-14.5 -35.5t-35.5 -14.5t-35.5 14.5t-14.5 35.5zM235 40q0 21 14.5 35.5t35.5 14.5t35.5 -14.5t14.5 -35.5t-14.5 -35.5t-35.5 -14.5t-35.5 14.5t-14.5 35.5zM425 40q0 21 14.5 35.5t35.5 14.5t35.5 -14.5
t14.5 -35.5t-14.5 -35.5t-35.5 -14.5t-35.5 14.5t-14.5 35.5z" />
    <glyph glyph-name="guilsinglleft" unicode="&#x2039;" horiz-adv-x="217" 
d="M186 150l-34 -36l-121 121l121 121l34 -36l-85 -85z" />
    <glyph glyph-name="guilsinglright" unicode="&#x203a;" horiz-adv-x="217" 
d="M31 320l34 36l121 -121l-121 -121l-34 36l85 85z" />
    <glyph glyph-name="Euro" unicode="&#x20ac;" horiz-adv-x="461" 
d="M31 459h50v141q0 42 29 71t71 29h125q42 0 71 -29t29 -71v-88h-75v88q0 25 -25 25h-125q-25 0 -25 -25v-141h137v-75h-137v-71h137v-75h-137v-138q0 -25 25 -25h125q25 0 25 25v88h75v-88q0 -42 -29 -71t-71 -29h-125q-42 0 -71 29t-29 71v138h-50v75h50v71h-50v75z" />
    <glyph glyph-name="trademark" unicode="&#x2122;" horiz-adv-x="437" 
d="M157 670h-50v-250h-30v250h-50v30h130v-30zM385 420h-30v211l-53 -178h-12l-53 178v-211h-30v280h41l48 -165l48 165h41v-280z" />
    <glyph glyph-name="one.2" horiz-adv-x="257" 
d="M127 0v625h-100v75h175v-700h-75z" />
    <glyph glyph-name="two.2" horiz-adv-x="435" 
d="M55 0v263q0 42 29 71t71 29h125q25 0 25 25v212q0 25 -25 25h-125q-25 0 -25 -25v-100h-75v100q0 42 29 71t71 29h125q42 0 71 -29t29 -71v-212q0 -42 -29 -71t-71 -29h-125q-25 0 -25 -25v-188h250v-75h-325z" />
    <glyph glyph-name="two.3" horiz-adv-x="422" 
d="M55 0v308q0 42 29 71t71 29h112q25 0 25 25v167q0 25 -25 25h-191v75h191q42 0 71 -29t29 -71v-167q0 -42 -29 -71t-71 -29h-112q-25 0 -25 -25v-233h237v-75h-312z" />
    <glyph glyph-name="three.2" horiz-adv-x="396" 
d="M341 100q0 -42 -29 -71t-71 -29h-200v75h200q25 0 25 25v208q0 25 -25 25h-150v75h150q25 0 25 25v167q0 25 -25 25h-200v75h200q42 0 71 -29t29 -71v-154q0 -32 -13.5 -51t-36.5 -26q23 -7 36.5 -26t13.5 -51v-192z" />
    <glyph glyph-name="five.2" horiz-adv-x="422" 
d="M367 100q0 -42 -29 -71t-71 -29h-212v75h212q25 0 25 25v208q0 25 -25 25h-212v367h293v-75h-218v-217h137q42 0 71 -29t29 -71v-208v0z" />
    <glyph glyph-name="six.2" horiz-adv-x="435" 
d="M305 308q0 25 -25 25h-125q-25 0 -25 -25v-208q0 -25 25 -25h125q25 0 25 25v208zM280 408q42 0 71 -29t29 -71v-208q0 -42 -29 -71t-71 -29h-125q-42 0 -71 29t-29 71v500q0 42 29 71t71 29h189v-75h-189q-25 0 -25 -25v-242q20 50 78 50h72z" />
    <glyph glyph-name="seven.2" horiz-adv-x="373" 
d="M332 625l-144 -625h-81l150 625h-230v75h305v-75z" />
    <glyph glyph-name="nine.2" horiz-adv-x="435" 
d="M305 342q-20 -50 -78 -50h-72q-42 0 -71 29t-29 71v208q0 42 29 71t71 29h125q42 0 71 -29t29 -71v-500q0 -42 -29 -71t-71 -29h-189v75h189q25 0 25 25v242zM130 392q0 -25 25 -25h125q25 0 25 25v208q0 25 -25 25h-125q-25 0 -25 -25v-208z" />
    <glyph glyph-name="A.2" horiz-adv-x="435" 
d="M305 0v276h-175v-276h-75v600q0 42 29 71t71 29h125q42 0 71 -29t29 -71v-600h-75zM305 600q0 25 -25 25h-125q-25 0 -25 -25v-249h175v249z" />
    <glyph glyph-name="Aacute.2" horiz-adv-x="435" 
d="M55 0zM305 0v276h-175v-276h-75v600q0 42 29 71t71 29h125q42 0 71 -29t29 -71v-600h-75zM305 600q0 25 -25 25h-125q-25 0 -25 -25v-249h175v249zM262 918l35 -35l-125 -125l-35 35z" />
    <glyph glyph-name="Acircumflex.2" horiz-adv-x="435" 
d="M55 0zM305 0v276h-175v-276h-75v600q0 42 29 71t71 29h125q42 0 71 -29t29 -71v-600h-75zM305 600q0 25 -25 25h-125q-25 0 -25 -25v-249h175v249zM338 794l-36 -36l-85 86l-85 -86l-36 36l121 120z" />
    <glyph glyph-name="Adieresis.2" horiz-adv-x="435" 
d="M55 0zM305 0v276h-175v-276h-75v600q0 42 29 71t71 29h125q42 0 71 -29t29 -71v-600h-75zM305 600q0 25 -25 25h-125q-25 0 -25 -25v-249h175v249zM100 838q0 19 13.5 32.5t32.5 13.5t32.5 -13.5t13.5 -32.5t-13.5 -32.5t-32.5 -13.5t-32.5 13.5t-13.5 32.5zM242 838
q0 19 13.5 32.5t32.5 13.5t32.5 -13.5t13.5 -32.5t-13.5 -32.5t-32.5 -13.5t-32.5 13.5t-13.5 32.5z" />
    <glyph glyph-name="Agrave.2" horiz-adv-x="435" 
d="M55 0zM305 0v276h-175v-276h-75v600q0 42 29 71t71 29h125q42 0 71 -29t29 -71v-600h-75zM305 600q0 25 -25 25h-125q-25 0 -25 -25v-249h175v249zM297 793l-35 -35l-125 125l35 35z" />
    <glyph glyph-name="Aring.2" horiz-adv-x="435" 
d="M55 0zM305 0v276h-175v-276h-75v600q0 42 29 71t71 29h125q42 0 71 -29t29 -71v-600h-75zM305 600q0 25 -25 25h-125q-25 0 -25 -25v-249h175v249zM295 827q0 -32 -22.5 -55t-54.5 -23t-55 23t-23 55t23 54.5t55 22.5t54.5 -22.5t22.5 -54.5zM177 827q0 -17 12 -29
t29 -12t29 12t12 29t-12 29t-29 12t-29 -12t-12 -29z" />
    <glyph glyph-name="Atilde.2" horiz-adv-x="435" 
d="M55 0zM305 0v276h-175v-276h-75v600q0 42 29 71t71 29h125q42 0 71 -29t29 -71v-600h-75zM305 600q0 25 -25 25h-125q-25 0 -25 -25v-249h175v249zM79 822l59 60q7 8 16 11.5t18 3.5q21 0 36 -15l55 -54l58 57l34 -35l-57 -58q-14 -15 -34 -15q-21 0 -36 15l-55 54
l-59 -58z" />
    <glyph glyph-name="AE.3" horiz-adv-x="645" 
d="M339 188v392l-164 -392h164zM339 113h-197l-50 -113h-83l307 700h60v-50q8 21 27.5 35.5t49.5 14.5h161v-75h-175q-25 0 -25 -25v-192h150v-75h-150v-233q0 -25 25 -25h175v-75h-175q-42 0 -71 29t-29 71v13z" />
    <glyph glyph-name="AE.2" horiz-adv-x="610" 
d="M265 700q30 0 49.5 -14.5t27.5 -35.5q8 21 27.5 35.5t49.5 14.5h161v-75h-175q-25 0 -25 -25v-205h150v-75h-150v-220q0 -25 25 -25h175v-75h-175q-42 0 -71 29t-29 71v220h-175v-320h-75v600q0 42 29 71t71 29h110zM305 600q0 25 -25 25h-125q-25 0 -25 -25v-205h175
v205z" />
    <glyph glyph-name="AE.4" horiz-adv-x="610" 
d="M305 600q0 25 -25 25h-125q-25 0 -25 -25v-205h175v205zM265 700q30 0 49.5 -14.5t27.5 -35.5v50h237v-75h-200v-230h150v-75h-150v-245h200v-75h-274v320h-175v-320h-75v600q0 42 29 71t71 29h110z" />
    <glyph glyph-name="C.2" horiz-adv-x="360" 
d="M155 0q-42 0 -71 29t-29 71v500q0 42 29 71t71 29h175v-75h-175q-25 0 -25 -25v-500q0 -25 25 -25h175v-75h-175z" />
    <glyph glyph-name="Ccedilla.2" horiz-adv-x="360" 
d="M285 -115q0 -16 -11.5 -28t-27.5 -12h-97v50h86v30h-61v75h-19q-42 0 -71 29t-29 71v500q0 42 29 71t71 29h175v-75h-175q-25 0 -25 -25v-500q0 -25 25 -25h175v-75h-106v-30h61v-85z" />
    <glyph glyph-name="E.2" horiz-adv-x="360" 
d="M155 0q-42 0 -71 29t-29 71v500q0 42 29 71t71 29h175v-75h-175q-25 0 -25 -25v-192h150v-75h-150v-233q0 -25 25 -25h175v-75h-175z" />
    <glyph glyph-name="Eacute.2" horiz-adv-x="360" 
d="M55 0zM155 0q-42 0 -71 29t-29 71v500q0 42 29 71t71 29h175v-75h-175q-25 0 -25 -25v-192h150v-75h-150v-233q0 -25 25 -25h175v-75h-175zM238 918l35 -35l-125 -125l-35 35z" />
    <glyph glyph-name="Ecircumflex.2" horiz-adv-x="360" 
d="M55 0zM155 0q-42 0 -71 29t-29 71v500q0 42 29 71t71 29h175v-75h-175q-25 0 -25 -25v-192h150v-75h-150v-233q0 -25 25 -25h175v-75h-175zM314 794l-36 -36l-85 86l-85 -86l-36 36l121 120z" />
    <glyph glyph-name="Edieresis.2" horiz-adv-x="360" 
d="M55 0zM155 0q-42 0 -71 29t-29 71v500q0 42 29 71t71 29h175v-75h-175q-25 0 -25 -25v-192h150v-75h-150v-233q0 -25 25 -25h175v-75h-175zM76 838q0 19 13.5 32.5t32.5 13.5t32.5 -13.5t13.5 -32.5t-13.5 -32.5t-32.5 -13.5t-32.5 13.5t-13.5 32.5zM218 838
q0 19 13.5 32.5t32.5 13.5t32.5 -13.5t13.5 -32.5t-13.5 -32.5t-32.5 -13.5t-32.5 13.5t-13.5 32.5z" />
    <glyph glyph-name="Egrave.2" horiz-adv-x="360" 
d="M55 0zM155 0q-42 0 -71 29t-29 71v500q0 42 29 71t71 29h175v-75h-175q-25 0 -25 -25v-192h150v-75h-150v-233q0 -25 25 -25h175v-75h-175zM273 793l-35 -35l-125 125l35 35z" />
    <glyph glyph-name="F.2" horiz-adv-x="360" 
d="M155 625q-25 0 -25 -25v-193h150v-75h-150v-332h-75v600q0 42 29 71t71 29h175v-75h-175z" />
    <glyph glyph-name="G.2" horiz-adv-x="435" 
d="M349 625h-194q-25 0 -25 -25v-500q0 -25 25 -25h125q25 0 25 25v183h-88v75h163v-258q0 -42 -29 -71t-71 -29h-125q-42 0 -71 29t-29 71v500q0 42 29 71t71 29h194v-75z" />
    <glyph glyph-name="G.3" horiz-adv-x="435" 
d="M380 100q0 -42 -29 -71t-71 -29h-125q-42 0 -71 29t-29 71v500q0 42 29 71t71 29h194v-75h-194q-25 0 -25 -25v-500q0 -25 25 -25h125q25 0 25 25v245h75v-245v0z" />
    <glyph glyph-name="J.2" horiz-adv-x="310" 
d="M255 100q0 -42 -29 -71t-71 -29h-125v75h125q25 0 25 25v600h75v-600v0z" />
    <glyph glyph-name="K.2" horiz-adv-x="435" 
d="M305 0v267q0 25 -25 25h-150v-292h-75v700h75v-333h100l75 333h81l-86 -334q36 -6 58 -34t22 -65v-267h-75z" />
    <glyph glyph-name="L.2" horiz-adv-x="360" 
d="M155 0q-42 0 -71 29t-29 71v600h75v-600q0 -25 25 -25h175v-75h-175z" />
    <glyph glyph-name="M.2" horiz-adv-x="635" 
d="M505 0v600q0 25 -25 25h-100q-25 0 -25 -25v-600h-75v600q0 25 -25 25h-100q-25 0 -25 -25v-600h-75v700h75v-52q13 23 36 37.5t52 14.5h37q29 0 52 -14.5t36 -37.5q13 23 36 37.5t51 14.5h50q42 0 71 -29t29 -71v-600h-75z" />
    <glyph glyph-name="N.2" horiz-adv-x="435" 
d="M305 0v600q0 25 -25 25h-125q-25 0 -25 -25v-600h-75v700h75v-52q13 23 36 37.5t52 14.5h62q42 0 71 -29t29 -71v-600h-75z" />
    <glyph glyph-name="Ntilde.2" horiz-adv-x="435" 
d="M55 0zM305 0v600q0 25 -25 25h-125q-25 0 -25 -25v-600h-75v700h75v-52q13 23 36 37.5t52 14.5h62q42 0 71 -29t29 -71v-600h-75zM79 822l59 60q7 8 16 11.5t18 3.5q21 0 36 -15l55 -54l58 57l34 -35l-57 -58q-14 -15 -34 -15q-21 0 -36 15l-55 54l-59 -58z" />
    <glyph glyph-name="OE.2" horiz-adv-x="610" 
d="M305 600q0 25 -25 25h-125q-25 0 -25 -25v-500q0 -25 25 -25h125q25 0 25 25v500zM155 0q-42 0 -71 29t-29 71v500q0 42 29 71t71 29h110q30 0 49.5 -14.5t27.5 -35.5q8 21 27.5 35.5t49.5 14.5h161v-75h-175q-25 0 -25 -25v-192h150v-75h-150v-233q0 -25 25 -25h175v-75
h-161q-30 0 -49.5 14.5t-27.5 35.5q-8 -21 -27.5 -35.5t-49.5 -14.5h-110z" />
    <glyph glyph-name="Q.2" horiz-adv-x="435" 
d="M380 100q0 -37 -23.5 -64t-58.5 -34l91 -127h-85l-90 125h-59q-42 0 -71 29t-29 71v500q0 42 29 71t71 29h125q42 0 71 -29t29 -71v-500zM305 600q0 25 -25 25h-125q-25 0 -25 -25v-500q0 -25 25 -25h125q25 0 25 25v500z" />
    <glyph glyph-name="R.2" horiz-adv-x="435" 
d="M305 600q0 25 -25 25h-150v-257h150q25 0 25 25v207zM380 0h-75v268q0 25 -25 25h-150v-293h-75v700h225q42 0 71 -29t29 -71v-193q0 -32 -13.5 -51t-36.5 -26q23 -7 36.5 -26t13.5 -51v-253z" />
    <glyph glyph-name="S.2" horiz-adv-x="435" 
d="M155 313q-42 0 -71 29t-29 71v187q0 42 29 71t71 29h125q42 0 71 -29t29 -71v-100h-75v100q0 25 -25 25h-125q-25 0 -25 -25v-187q0 -25 25 -25h125q42 0 71 -29t29 -71v-188q0 -42 -29 -71t-71 -29h-125q-42 0 -71 29t-29 71v100h75v-100q0 -25 25 -25h125q25 0 25 25
v188q0 25 -25 25h-125z" />
    <glyph glyph-name="S.3" horiz-adv-x="422" 
d="M367 100q0 -42 -29 -71t-71 -29h-212v75h212q25 0 25 25v188q0 25 -25 25h-112q-42 0 -71 29t-29 71v187q0 42 29 71t71 29h203v-75h-203q-25 0 -25 -25v-187q0 -25 25 -25h112q42 0 71 -29t29 -71v-188v0z" />
    <glyph glyph-name="W.2" horiz-adv-x="635" 
d="M155 0q-42 0 -71 29t-29 71v600h75v-600q0 -25 25 -25h100q25 0 25 25v601h75v-601q0 -25 25 -25h100q25 0 25 25v600h75v-600q0 -42 -29 -71t-71 -29h-76q-28 0 -51 14.5t-36 37.5q-13 -23 -36 -37.5t-52 -14.5h-74z" />
    <glyph glyph-name="X.2" horiz-adv-x="435" 
d="M55 293q0 32 13.5 51t36.5 26q-23 7 -36.5 26t-13.5 51v253h75v-267q0 -25 25 -25h125q25 0 25 25v267h75v-253q0 -32 -13.5 -51t-36.5 -26q23 -7 36.5 -26t13.5 -51v-293h-75v308q0 25 -25 25h-125q-25 0 -25 -25v-308h-75v293z" />
    <glyph glyph-name="Y.2" horiz-adv-x="435" 
d="M380 368q0 -42 -29 -71t-71 -29h-25v-268h-75v268h-25q-42 0 -71 29t-29 71v332h75v-332q0 -25 25 -25h125q25 0 25 25v332h75v-332v0z" />
    <glyph glyph-name="Yacute.2" horiz-adv-x="435" 
d="M55 0zM380 368q0 -42 -29 -71t-71 -29h-25v-268h-75v268h-25q-42 0 -71 29t-29 71v332h75v-332q0 -25 25 -25h125q25 0 25 25v332h75v-332v0zM262 918l35 -35l-125 -125l-35 35z" />
    <glyph glyph-name="Ydieresis.2" horiz-adv-x="435" 
d="M55 0zM380 368q0 -42 -29 -71t-71 -29h-25v-268h-75v268h-25q-42 0 -71 29t-29 71v332h75v-332q0 -25 25 -25h125q25 0 25 25v332h75v-332v0zM100 838q0 19 13.5 32.5t32.5 13.5t32.5 -13.5t13.5 -32.5t-13.5 -32.5t-32.5 -13.5t-32.5 13.5t-13.5 32.5zM242 838
q0 19 13.5 32.5t32.5 13.5t32.5 -13.5t13.5 -32.5t-13.5 -32.5t-32.5 -13.5t-32.5 13.5t-13.5 32.5z" />
    <glyph glyph-name="a.2" 
d="M265 190q0 22 -22 22h-97q-22 0 -22 -22v-100q0 -22 22 -22h97q22 0 22 22v100zM123 333h-68v47q0 18 7 34.5t19 29t28.5 19.5t35.5 7h98q19 0 35.5 -7t28.5 -19.5t19 -29t7 -34.5v-380h-68v38q-5 -17 -20.5 -27.5t-38.5 -10.5h-59q-18 0 -35 7t-29.5 19.5t-20 29
t-7.5 34.5v100q0 40 26 65t64 25h61q23 0 38.5 -10.5t20.5 -27.5v138q0 22 -22 22h-98q-22 0 -22 -22v-47z" />
    <glyph glyph-name="aacute.2" 
d="M55 0zM265 190q0 22 -22 22h-97q-22 0 -22 -22v-100q0 -22 22 -22h97q22 0 22 22v100zM123 333h-68v47q0 18 7 34.5t19 29t28.5 19.5t35.5 7h98q19 0 35.5 -7t28.5 -19.5t19 -29t7 -34.5v-380h-68v38q-5 -17 -20.5 -27.5t-38.5 -10.5h-59q-18 0 -35 7t-29.5 19.5t-20 29
t-7.5 34.5v100q0 40 26 65t64 25h61q23 0 38.5 -10.5t20.5 -27.5v138q0 22 -22 22h-98q-22 0 -22 -22v-47zM239 688l35 -35l-125 -125l-35 35z" />
    <glyph glyph-name="acircumflex.2" 
d="M55 0zM265 190q0 22 -22 22h-97q-22 0 -22 -22v-100q0 -22 22 -22h97q22 0 22 22v100zM123 333h-68v47q0 18 7 34.5t19 29t28.5 19.5t35.5 7h98q19 0 35.5 -7t28.5 -19.5t19 -29t7 -34.5v-380h-68v38q-5 -17 -20.5 -27.5t-38.5 -10.5h-59q-18 0 -35 7t-29.5 19.5t-20 29
t-7.5 34.5v100q0 40 26 65t64 25h61q23 0 38.5 -10.5t20.5 -27.5v138q0 22 -22 22h-98q-22 0 -22 -22v-47zM315 564l-36 -36l-85 86l-85 -86l-36 36l121 120z" />
    <glyph glyph-name="adieresis.2" 
d="M55 0zM265 190q0 22 -22 22h-97q-22 0 -22 -22v-100q0 -22 22 -22h97q22 0 22 22v100zM123 333h-68v47q0 18 7 34.5t19 29t28.5 19.5t35.5 7h98q19 0 35.5 -7t28.5 -19.5t19 -29t7 -34.5v-380h-68v38q-5 -17 -20.5 -27.5t-38.5 -10.5h-59q-18 0 -35 7t-29.5 19.5t-20 29
t-7.5 34.5v100q0 40 26 65t64 25h61q23 0 38.5 -10.5t20.5 -27.5v138q0 22 -22 22h-98q-22 0 -22 -22v-47zM77 608q0 19 13.5 32.5t32.5 13.5t32.5 -13.5t13.5 -32.5t-13.5 -32.5t-32.5 -13.5t-32.5 13.5t-13.5 32.5zM219 608q0 19 13.5 32.5t32.5 13.5t32.5 -13.5
t13.5 -32.5t-13.5 -32.5t-32.5 -13.5t-32.5 13.5t-13.5 32.5z" />
    <glyph glyph-name="agrave.2" 
d="M55 0zM265 190q0 22 -22 22h-97q-22 0 -22 -22v-100q0 -22 22 -22h97q22 0 22 22v100zM123 333h-68v47q0 18 7 34.5t19 29t28.5 19.5t35.5 7h98q19 0 35.5 -7t28.5 -19.5t19 -29t7 -34.5v-380h-68v38q-5 -17 -20.5 -27.5t-38.5 -10.5h-59q-18 0 -35 7t-29.5 19.5t-20 29
t-7.5 34.5v100q0 40 26 65t64 25h61q23 0 38.5 -10.5t20.5 -27.5v138q0 22 -22 22h-98q-22 0 -22 -22v-47zM274 563l-35 -35l-125 125l35 35z" />
    <glyph glyph-name="aring.2" 
d="M55 0zM265 190q0 22 -22 22h-97q-22 0 -22 -22v-100q0 -22 22 -22h97q22 0 22 22v100zM123 333h-68v47q0 18 7 34.5t19 29t28.5 19.5t35.5 7h98q19 0 35.5 -7t28.5 -19.5t19 -29t7 -34.5v-380h-68v38q-5 -17 -20.5 -27.5t-38.5 -10.5h-59q-18 0 -35 7t-29.5 19.5t-20 29
t-7.5 34.5v100q0 40 26 65t64 25h61q23 0 38.5 -10.5t20.5 -27.5v138q0 22 -22 22h-98q-22 0 -22 -22v-47zM272 597q0 -32 -22.5 -55t-54.5 -23t-55 23t-23 55t23 54.5t55 22.5t54.5 -22.5t22.5 -54.5zM154 597q0 -17 12 -29t29 -12t29 12t12 29t-12 29t-29 12t-29 -12
t-12 -29z" />
    <glyph glyph-name="atilde.2" 
d="M55 0zM265 190q0 22 -22 22h-97q-22 0 -22 -22v-100q0 -22 22 -22h97q22 0 22 22v100zM123 333h-68v47q0 18 7 34.5t19 29t28.5 19.5t35.5 7h98q19 0 35.5 -7t28.5 -19.5t19 -29t7 -34.5v-380h-68v38q-5 -17 -20.5 -27.5t-38.5 -10.5h-59q-18 0 -35 7t-29.5 19.5t-20 29
t-7.5 34.5v100q0 40 26 65t64 25h61q23 0 38.5 -10.5t20.5 -27.5v138q0 22 -22 22h-98q-22 0 -22 -22v-47zM56 592l59 60q7 8 16 11.5t18 3.5q21 0 36 -15l55 -54l58 57l34 -35l-57 -58q-14 -15 -34 -15q-21 0 -36 15l-55 54l-59 -58z" />
    <glyph glyph-name="a.3" 
d="M265 380q0 22 -22 22h-98q-22 0 -22 -22v-290q0 -22 22 -22h98q22 0 22 22v290zM333 0h-68v45q-15 -45 -72 -45h-48q-37 0 -63.5 26.5t-26.5 63.5v290q0 37 26.5 63.5t63.5 26.5h48q58 0 72 -45v45h68v-470z" />
    <glyph glyph-name="aacute.3" 
d="M55 0zM239 688l35 -35l-125 -125l-35 35zM265 380q0 22 -22 22h-98q-22 0 -22 -22v-290q0 -22 22 -22h98q22 0 22 22v290zM333 0h-68v45q-15 -45 -72 -45h-48q-37 0 -63.5 26.5t-26.5 63.5v290q0 37 26.5 63.5t63.5 26.5h48q58 0 72 -45v45h68v-470z" />
    <glyph glyph-name="acircumflex.3" 
d="M55 0zM315 564l-36 -36l-85 86l-85 -86l-36 36l121 120zM265 380q0 22 -22 22h-98q-22 0 -22 -22v-290q0 -22 22 -22h98q22 0 22 22v290zM333 0h-68v45q-15 -45 -72 -45h-48q-37 0 -63.5 26.5t-26.5 63.5v290q0 37 26.5 63.5t63.5 26.5h48q58 0 72 -45v45h68v-470z" />
    <glyph glyph-name="adieresis.3" 
d="M55 0zM77 608q0 19 13.5 32.5t32.5 13.5t32.5 -13.5t13.5 -32.5t-13.5 -32.5t-32.5 -13.5t-32.5 13.5t-13.5 32.5zM219 608q0 19 13.5 32.5t32.5 13.5t32.5 -13.5t13.5 -32.5t-13.5 -32.5t-32.5 -13.5t-32.5 13.5t-13.5 32.5zM265 380q0 22 -22 22h-98q-22 0 -22 -22
v-290q0 -22 22 -22h98q22 0 22 22v290zM333 0h-68v45q-15 -45 -72 -45h-48q-37 0 -63.5 26.5t-26.5 63.5v290q0 37 26.5 63.5t63.5 26.5h48q58 0 72 -45v45h68v-470z" />
    <glyph glyph-name="agrave.3" 
d="M55 0zM274 563l-35 -35l-125 125l35 35zM265 380q0 22 -22 22h-98q-22 0 -22 -22v-290q0 -22 22 -22h98q22 0 22 22v290zM333 0h-68v45q-15 -45 -72 -45h-48q-37 0 -63.5 26.5t-26.5 63.5v290q0 37 26.5 63.5t63.5 26.5h48q58 0 72 -45v45h68v-470z" />
    <glyph glyph-name="aring.3" 
d="M55 0zM272 597q0 -32 -22.5 -55t-54.5 -23t-55 23t-23 55t23 54.5t55 22.5t54.5 -22.5t22.5 -54.5zM154 597q0 -17 12 -29t29 -12t29 12t12 29t-12 29t-29 12t-29 -12t-12 -29zM265 380q0 22 -22 22h-98q-22 0 -22 -22v-290q0 -22 22 -22h98q22 0 22 22v290zM333 0h-68
v45q-15 -45 -72 -45h-48q-37 0 -63.5 26.5t-26.5 63.5v290q0 37 26.5 63.5t63.5 26.5h48q58 0 72 -45v45h68v-470z" />
    <glyph glyph-name="atilde.3" 
d="M55 0zM56 592l59 60q7 8 16 11.5t18 3.5q21 0 36 -15l55 -54l58 57l34 -35l-57 -58q-14 -15 -34 -15q-21 0 -36 15l-55 54l-59 -58zM265 380q0 22 -22 22h-98q-22 0 -22 -22v-290q0 -22 22 -22h98q22 0 22 22v290zM333 0h-68v45q-15 -45 -72 -45h-48q-37 0 -63.5 26.5
t-26.5 63.5v290q0 37 26.5 63.5t63.5 26.5h48q58 0 72 -45v45h68v-470z" />
    <glyph glyph-name="ae.2" horiz-adv-x="598" 
d="M265 189q0 22 -22 22h-97q-22 0 -22 -22v-99q0 -22 22 -22h97q22 0 22 22v99zM475 259v121q0 22 -22 22h-98q-22 0 -22 -22v-121h142zM360 0q-54 0 -61 48q-8 -48 -60 -48h-92q-18 0 -35 7t-29.5 19.5t-20 29t-7.5 34.5v99q0 40 26 65t64 25h61q7 -1 13.5 -2t12.5 -3
q27 -11 33 -33v139q0 22 -22 22h-98q-22 0 -22 -22v-47h-68v47q0 18 7 34.5t19 29t28.5 19.5t35.5 7h94q52 0 60 -48q7 48 61 48h93q37 0 63.5 -26.5t26.5 -63.5v-188h-210v-102q0 -22 22 -22h98q22 0 22 22v47h68v-47q0 -18 -7 -34.5t-19 -29t-28.5 -19.5t-35.5 -7h-93z
" />
    <glyph glyph-name="ae.3" horiz-adv-x="598" 
d="M475 380q0 22 -22 22h-98q-22 0 -22 -22v-121h142v121zM333 191v-101q0 -22 22 -22h155v-68h-105q-20 0 -33.5 6t-22 14t-12 15.5t-4.5 9.5v-45h-68v45q-1 -2 -4.5 -9.5t-12 -15.5t-22 -14t-33.5 -6h-48q-38 0 -64 26t-26 64v290q0 38 26 64t64 26h48q20 0 33.5 -6
t22 -14t12 -15t4.5 -10v45h68v-45q1 3 4.5 10t12 15t22 14t33.5 6h48q38 0 64 -26t26 -64v-189h-210zM265 380q0 22 -22 22h-98q-22 0 -22 -22v-290q0 -22 22 -22h98q22 0 22 22v290z" />
    <glyph glyph-name="ae.4" horiz-adv-x="598" 
d="M475 380q0 22 -22 22h-98q-22 0 -22 -22v-121h142v121zM265 380q0 22 -22 22h-98q-22 0 -22 -22v-290q0 -22 22 -22h98q22 0 22 22v290zM405 0q-20 0 -33.5 6t-22 14t-12 15.5t-4.5 9.5v-45h-68v45q-1 -2 -4.5 -9.5t-12 -15.5t-22 -14t-33.5 -6h-48q-38 0 -64 26t-26 64
v290q0 38 26 64t64 26h48q20 0 33.5 -6t22 -14t12 -15t4.5 -10v45h68v-45q1 3 4.5 10t12 15t22 14t33.5 6h48q38 0 64 -26t26 -64v-189h-210v-101q0 -22 22 -22h98q22 0 22 22v47h68v-47q0 -18 -7 -34.5t-19 -29t-28.5 -19.5t-35.5 -7h-48z" />
    <glyph glyph-name="c.2" horiz-adv-x="319" 
d="M145 0q-38 0 -64 26t-26 64v290q0 38 26 64t64 26h144v-68h-144q-22 0 -22 -22v-290q0 -22 22 -22h144v-68h-144z" />
    <glyph glyph-name="ccedilla.2" horiz-adv-x="319" 
d="M265 -115q0 -16 -11.5 -28t-27.5 -12h-97v50h86v30h-61v75h-9q-38 0 -64 26t-26 64v290q0 38 26 64t64 26h144v-68h-144q-22 0 -22 -22v-290q0 -22 22 -22h144v-68h-85v-30h61v-85z" />
    <glyph glyph-name="e.2" 
d="M265 259v121q0 22 -22 22h-98q-22 0 -22 -22v-121h142zM145 0q-37 0 -63.5 26.5t-26.5 63.5v290q0 37 26.5 63.5t63.5 26.5h98q19 0 35.5 -7t28.5 -19.5t19 -29t7 -34.5v-188h-210v-102q0 -22 22 -22h98q22 0 22 22v47h68v-47q0 -18 -7 -34.5t-19 -29t-28.5 -19.5
t-35.5 -7h-98z" />
    <glyph glyph-name="eacute.2" 
d="M55 0zM265 259v121q0 22 -22 22h-98q-22 0 -22 -22v-121h142zM145 0q-37 0 -63.5 26.5t-26.5 63.5v290q0 37 26.5 63.5t63.5 26.5h98q19 0 35.5 -7t28.5 -19.5t19 -29t7 -34.5v-188h-210v-102q0 -22 22 -22h98q22 0 22 22v47h68v-47q0 -18 -7 -34.5t-19 -29t-28.5 -19.5
t-35.5 -7h-98zM239 688l35 -35l-125 -125l-35 35z" />
    <glyph glyph-name="egrave.2" 
d="M55 0zM265 259v121q0 22 -22 22h-98q-22 0 -22 -22v-121h142zM145 0q-37 0 -63.5 26.5t-26.5 63.5v290q0 37 26.5 63.5t63.5 26.5h98q19 0 35.5 -7t28.5 -19.5t19 -29t7 -34.5v-188h-210v-102q0 -22 22 -22h98q22 0 22 22v47h68v-47q0 -18 -7 -34.5t-19 -29t-28.5 -19.5
t-35.5 -7h-98zM274 563l-35 -35l-125 125l35 35z" />
    <glyph glyph-name="ecircumflex.2" 
d="M55 0zM265 259v121q0 22 -22 22h-98q-22 0 -22 -22v-121h142zM145 0q-37 0 -63.5 26.5t-26.5 63.5v290q0 37 26.5 63.5t63.5 26.5h98q19 0 35.5 -7t28.5 -19.5t19 -29t7 -34.5v-188h-210v-102q0 -22 22 -22h98q22 0 22 22v47h68v-47q0 -18 -7 -34.5t-19 -29t-28.5 -19.5
t-35.5 -7h-98zM315 564l-36 -36l-85 86l-85 -86l-36 36l121 120z" />
    <glyph glyph-name="edieresis.2" 
d="M55 0zM265 259v121q0 22 -22 22h-98q-22 0 -22 -22v-121h142zM145 0q-37 0 -63.5 26.5t-26.5 63.5v290q0 37 26.5 63.5t63.5 26.5h98q19 0 35.5 -7t28.5 -19.5t19 -29t7 -34.5v-188h-210v-102q0 -22 22 -22h98q22 0 22 22v47h68v-47q0 -18 -7 -34.5t-19 -29t-28.5 -19.5
t-35.5 -7h-98zM77 608q0 19 13.5 32.5t32.5 13.5t32.5 -13.5t13.5 -32.5t-13.5 -32.5t-32.5 -13.5t-32.5 13.5t-13.5 32.5zM219 608q0 19 13.5 32.5t32.5 13.5t32.5 -13.5t13.5 -32.5t-13.5 -32.5t-32.5 -13.5t-32.5 13.5t-13.5 32.5z" />
    <glyph glyph-name="f_j.2" horiz-adv-x="432" 
d="M377 -150h-68v552h-157v-402h-68v402h-70v68h70v140q0 18 7 34.5t19 29t28.5 19.5t35.5 7h68v-68h-68q-22 0 -22 -22v-140h225v-620zM298 608q0 19 13.5 32.5t32.5 13.5t32.5 -13.5t13.5 -32.5t-13.5 -32.5t-32.5 -13.5t-32.5 13.5t-13.5 32.5z" />
    <glyph glyph-name="f_k.2" horiz-adv-x="642" 
d="M377 259h39l118 211h74l-118 -211h7q38 0 64 -26t26 -64v-169h-68v169q0 22 -22 22h-120v-191h-68v632h-135q-22 0 -22 -22v-140h90v-68h-90v-402h-68v402h-70v68h70v140q0 18 7 34.5t19 29t28.5 19.5t35.5 7h203v-441z" />
    <glyph glyph-name="f_t.2" horiz-adv-x="446" 
d="M294 470v140h68v-140h70v-68h-70v-402h-68v402h-142v-402h-68v402h-70v68h70v140q0 18 7 34.5t19 29t28.5 19.5t35.5 7h68v-68h-68q-22 0 -22 -22v-140h142z" />
    <glyph glyph-name="dotlessi" horiz-adv-x="178" 
d="M123 0h-68v470h68v-470z" />
    <glyph glyph-name="i.dotaccent" horiz-adv-x="178" 
d="M123 0h-68v470h68v-470zM44 608q0 19 13.5 32.5t32.5 13.5t32.5 -13.5t13.5 -32.5t-13.5 -32.5t-32.5 -13.5t-32.5 13.5t-13.5 32.5z" />
    <glyph glyph-name="j.2" horiz-adv-x="178" 
d="M123 -150h-68v620h68v-620zM44 608q0 19 13.5 32.5t32.5 13.5t32.5 -13.5t13.5 -32.5t-13.5 -32.5t-32.5 -13.5t-32.5 13.5t-13.5 32.5z" />
    <glyph glyph-name="k.2" 
d="M265 0v169q0 22 -22 22h-120v-191h-68v700h68v-441h39l118 211h74l-118 -211h7q38 0 64 -26t26 -64v-169h-68z" />
    <glyph glyph-name="oe.2" horiz-adv-x="598" 
d="M475 380q0 22 -22 22h-98q-22 0 -22 -22v-119h142v119zM265 380q0 22 -22 22h-98q-22 0 -22 -22v-290q0 -22 22 -22h98q22 0 22 22v290zM145 0q-38 0 -64 26t-26 64v290q0 38 26 64t64 26h95q52 0 60 -48q7 48 61 48h92q38 0 64 -26t26 -64v-187h-210v-103q0 -22 22 -22
h98q22 0 22 22v47h68v-47q0 -18 -7 -34.5t-19 -29t-28.5 -19.5t-35.5 -7h-92q-54 0 -61 48q-8 -48 -60 -48h-95z" />
    <glyph glyph-name="r.2" horiz-adv-x="340" 
d="M313 302h-68v78q0 22 -22 22h-78q-22 0 -22 -22v-380h-68v470h68v-45q15 45 72 45h28q38 0 64 -26t26 -64v-78z" />
    <glyph glyph-name="s.2" 
d="M265 180q0 22 -22 22h-98q-37 0 -63.5 26.5t-26.5 63.5v88q0 37 26.5 63.5t63.5 26.5h98q19 0 35.5 -7t28.5 -19.5t19 -29t7 -34.5v-47h-68v47q0 22 -22 22h-98q-22 0 -22 -22v-88q0 -22 22 -22h98q19 0 35.5 -7t28.5 -19.5t19 -29t7 -34.5v-90q0 -18 -7 -34.5t-19 -29
t-28.5 -19.5t-35.5 -7h-98q-37 0 -63.5 26.5t-26.5 63.5v48h68v-48q0 -22 22 -22h98q22 0 22 22v90z" />
    <glyph glyph-name="s.3" horiz-adv-x="367" 
d="M312 90q0 -38 -26 -64t-64 -26h-167v68h167q22 0 22 22v90q0 22 -22 22h-77q-38 0 -64 26t-26 64v88q0 38 26 64t64 26h157v-68h-157q-22 0 -22 -22v-88q0 -22 22 -22h77q38 0 64 -26t26 -64v-90v0z" />
    <glyph glyph-name="t.2" horiz-adv-x="236" 
d="M152 402v-402h-68v402h-70v68h70v140h68v-140h70v-68h-70z" />
    <glyph glyph-name="t_f.2" horiz-adv-x="479" 
d="M84 0v402h-70v68h70v140h68v-140h142v140q0 18 7 34.5t19 29t28.5 19.5t35.5 7h68v-68h-68q-22 0 -22 -22v-140h90v-68h-90v-402h-68v402h-142v-402h-68z" />
    <glyph glyph-name="t_t.2" horiz-adv-x="446" 
d="M362 402v-402h-68v402h-142v-402h-68v402h-70v68h70v140h68v-140h142v140h68v-140h70v-68h-70z" />
    <glyph glyph-name="t_t_f.2" horiz-adv-x="689" 
d="M662 402h-90v-402h-68v402h-142v-402h-68v402h-142v-402h-68v402h-70v68h70v140h68v-140h142v140h68v-140h142v140q0 18 7 34.5t19 29t28.5 19.5t35.5 7h68v-68h-68q-22 0 -22 -22v-140h90v-68z" />
    <glyph glyph-name="u.2" 
d="M333 90q0 -38 -26 -64t-64 -26h-98q-38 0 -64 26t-26 64v380h68v-380q0 -22 22 -22h98q22 0 22 22v380h68v-380v0z" />
    <glyph glyph-name="uacute.2" 
d="M55 0zM333 90q0 -38 -26 -64t-64 -26h-98q-38 0 -64 26t-26 64v380h68v-380q0 -22 22 -22h98q22 0 22 22v380h68v-380v0zM239 688l35 -35l-125 -125l-35 35z" />
    <glyph glyph-name="ucircumflex.2" 
d="M55 0zM333 90q0 -38 -26 -64t-64 -26h-98q-38 0 -64 26t-26 64v380h68v-380q0 -22 22 -22h98q22 0 22 22v380h68v-380v0zM315 564l-36 -36l-85 86l-85 -86l-36 36l121 120z" />
    <glyph glyph-name="udieresis.2" 
d="M55 0zM333 90q0 -38 -26 -64t-64 -26h-98q-38 0 -64 26t-26 64v380h68v-380q0 -22 22 -22h98q22 0 22 22v380h68v-380v0zM77 608q0 19 13.5 32.5t32.5 13.5t32.5 -13.5t13.5 -32.5t-13.5 -32.5t-32.5 -13.5t-32.5 13.5t-13.5 32.5zM219 608q0 19 13.5 32.5t32.5 13.5
t32.5 -13.5t13.5 -32.5t-13.5 -32.5t-32.5 -13.5t-32.5 13.5t-13.5 32.5z" />
    <glyph glyph-name="ugrave.2" 
d="M55 0zM333 90q0 -38 -26 -64t-64 -26h-98q-38 0 -64 26t-26 64v380h68v-380q0 -22 22 -22h98q22 0 22 22v380h68v-380v0zM274 563l-35 -35l-125 125l35 35z" />
    <glyph glyph-name="w.2" horiz-adv-x="568" 
d="M356 0q-55 0 -72 46q-17 -46 -72 -46h-67q-38 0 -64 26t-26 64v380h68v-380q0 -22 22 -22h83q22 0 22 22v380h68v-380q0 -22 22 -22h83q22 0 22 22v380h68v-380q0 -38 -26 -64t-64 -26h-67z" />
    <glyph glyph-name="x.2" 
d="M333 0h-68v180q0 22 -22 22h-98q-22 0 -22 -22v-180h-68v159q0 32 13.5 51t36.5 26q-23 7 -36.5 26t-13.5 51v157h68v-178q0 -22 22 -22h98q22 0 22 22v178h68v-157q0 -32 -13.5 -51t-36.5 -26q23 -7 36.5 -26t13.5 -51v-159z" />
    <glyph glyph-name="y.2" 
d="M265 45q-15 -45 -72 -45h-48q-37 0 -63.5 26t-26.5 64v380h68v-380q0 -22 22 -22h98q22 0 22 22v380h68v-530q0 -18 -7 -34t-19 -28.5t-28.5 -20t-35.5 -7.5h-132v68h132q22 0 22 22v105z" />
    <glyph glyph-name="yacute.2" 
d="M55 0zM265 45q-15 -45 -72 -45h-48q-37 0 -63.5 26t-26.5 64v380h68v-380q0 -22 22 -22h98q22 0 22 22v380h68v-530q0 -18 -7 -34t-19 -28.5t-28.5 -20t-35.5 -7.5h-132v68h132q22 0 22 22v105zM239 688l35 -35l-125 -125l-35 35z" />
    <glyph glyph-name="ydieresis.2" 
d="M55 0zM265 45q-15 -45 -72 -45h-48q-37 0 -63.5 26t-26.5 64v380h68v-380q0 -22 22 -22h98q22 0 22 22v380h68v-530q0 -18 -7 -34t-19 -28.5t-28.5 -20t-35.5 -7.5h-132v68h132q22 0 22 22v105zM77 608q0 19 13.5 32.5t32.5 13.5t32.5 -13.5t13.5 -32.5t-13.5 -32.5
t-32.5 -13.5t-32.5 13.5t-13.5 32.5zM219 608q0 19 13.5 32.5t32.5 13.5t32.5 -13.5t13.5 -32.5t-13.5 -32.5t-32.5 -13.5t-32.5 13.5t-13.5 32.5z" />
    <glyph glyph-name="ordfeminine.2" horiz-adv-x="362" 
d="M55 196h252v-64h-252v64zM243 318q-4 -17 -21.5 -27.5t-37.5 -10.5h-37q-18 0 -35 7t-29.5 19.5t-20 29t-7.5 34.5v74q0 42 26.5 66t63.5 24h39q20 0 37.5 -10.5t21.5 -27.5v114q0 11 -7.5 18.5t-18.5 7.5h-72q-11 0 -18.5 -7.5t-7.5 -18.5v-40h-64v40q0 38 26 64t64 26
h72q38 0 64 -26t26 -64v-330h-64v38zM243 444q0 11 -7.5 18.5t-18.5 7.5h-71q-11 0 -18.5 -7.5t-7.5 -18.5v-74q0 -11 7.5 -18.5t18.5 -7.5h71q11 0 18.5 7.5t7.5 18.5v74z" />
    <glyph glyph-name="ordfeminine.3" horiz-adv-x="363" 
d="M243 610q0 25 -25 25h-72q-25 0 -25 -25v-240q0 -25 25 -25h72q25 0 25 25v240zM55 191h253v-65h-253v65zM147 280q-18 0 -35 7t-29.5 19.5t-20 29t-7.5 34.5v240q0 42 26.5 65.5t63.5 24.5h39q20 0 37.5 -10.5t21.5 -27.5v38h65v-420h-65v38q-4 -17 -21.5 -27.5
t-37.5 -10.5h-37z" />
    <glyph glyph-name="question.2" horiz-adv-x="385" 
d="M330 443q0 -21 -8 -39t-21.5 -31.5t-31.5 -21.5t-39 -8h-24v-180h-75v255h99q25 0 25 25v157q0 25 -25 25h-200v75h200q42 0 71 -29t29 -71v-157zM118 40q0 21 14.5 35.5t35.5 14.5t35.5 -14.5t14.5 -35.5t-14.5 -35.5t-35.5 -14.5t-35.5 14.5t-14.5 35.5z" />
    <glyph glyph-name="questiondown.2" horiz-adv-x="385" 
d="M55 27q0 21 7.5 39t21 31.5t32 21.5t39.5 8h24v180h75v-255h-99q-25 0 -25 -25v-157q0 -25 25 -25h200v-75h-200q-42 0 -71 29t-29 71v157zM267 430q0 -21 -14.5 -35.5t-35.5 -14.5t-35.5 14.5t-14.5 35.5t14.5 35.5t35.5 14.5t35.5 -14.5t14.5 -35.5z" />
    <glyph glyph-name="exclamdown.case" horiz-adv-x="211" 
d="M68 525h75v-525h-75v525zM156 660q0 -21 -14.5 -35.5t-35.5 -14.5t-35.5 14.5t-14.5 35.5t14.5 35.5t35.5 14.5t35.5 -14.5t14.5 -35.5z" />
    <glyph glyph-name="questiondown.case" horiz-adv-x="385" 
d="M30 177q0 27 9.5 46t29.5 40l120 122q8 8 8 19t-8 19l-53 53l53 52l51 -49q13 -13 21 -31t8 -39q0 -48 -30 -77l-122 -121q-5 -5 -8.5 -13.5t-3.5 -18.5v-79q0 -25 25 -25h125q25 0 25 25v88h75v-88q0 -42 -29 -71t-71 -29h-125q-42 0 -71 29t-29 71v77zM242 660
q0 -21 -14.5 -35.5t-35.5 -14.5t-35.5 14.5t-14.5 35.5t14.5 35.5t35.5 14.5t35.5 -14.5t14.5 -35.5z" />
    <glyph glyph-name="questiondown.case2" horiz-adv-x="385" 
d="M55 257q0 21 7.5 39t21 31.5t32 21.5t39.5 8h24v180h75v-255h-99q-25 0 -25 -25v-157q0 -25 25 -25h200v-75h-200q-42 0 -71 29t-29 71v157zM267 660q0 -21 -14.5 -35.5t-35.5 -14.5t-35.5 14.5t-14.5 35.5t14.5 35.5t35.5 14.5t35.5 -14.5t14.5 -35.5z" />
    <glyph glyph-name="guillemotleft.case" horiz-adv-x="373" 
d="M186 265l-34 -36l-121 121l121 121l34 -36l-85 -85zM342 265l-35 -36l-121 121l121 121l35 -36l-85 -85z" />
    <glyph glyph-name="guillemotright.case" horiz-adv-x="373" 
d="M187 435l34 36l121 -121l-121 -121l-34 36l85 85zM31 435l35 36l121 -121l-121 -121l-35 36l85 85z" />
    <glyph glyph-name="guilsinglleft.case" horiz-adv-x="217" 
d="M186 265l-34 -36l-121 121l121 121l34 -36l-85 -85z" />
    <glyph glyph-name="guilsinglright.case" horiz-adv-x="217" 
d="M31 435l34 36l121 -121l-121 -121l-34 36l85 85z" />
    <glyph glyph-name="hyphen.case" horiz-adv-x="271" 
d="M241 316h-211v68h211v-68z" />
    <glyph glyph-name="endash.case" horiz-adv-x="438" 
d="M408 316h-378v68h378v-68z" />
    <glyph glyph-name="emdash.case" horiz-adv-x="642" 
d="M612 316h-582v68h582v-68z" />
    <glyph glyph-name="bullet.case" horiz-adv-x="380" 
d="M334 350q0 -30 -11.5 -56.5t-31 -46t-45.5 -31t-56 -11.5t-56.5 11.5t-46 31t-30.5 46t-11 56.5t11 56.5t30.5 46t46 31t56.5 11.5t56 -11.5t45.5 -31t31 -46t11.5 -56.5z" />
    <glyph glyph-name="periodcentered.case" horiz-adv-x="190" 
d="M45 350q0 21 14.5 35.5t35.5 14.5t35.5 -14.5t14.5 -35.5t-14.5 -35.5t-35.5 -14.5t-35.5 14.5t-14.5 35.5z" />
    <glyph glyph-name="ampersand.2" horiz-adv-x="494" 
d="M55 293q0 32 13.5 51t36.5 26q-23 7 -36.5 26t-13.5 51v153q0 42 29 71t71 29h200v-75h-200q-25 0 -25 -25v-167q0 -25 25 -25h93v-75h-93q-25 0 -25 -25v-208q0 -25 25 -25h125q25 0 25 25v308h175v-75h-100v-233q0 -42 -29 -71t-71 -29h-125q-42 0 -71 29t-29 71v193z
" />
    <glyph glyph-name="ampersand.3" horiz-adv-x="360" 
d="M55 283q0 32 13.5 51t36.5 26q-23 7 -36.5 26t-13.5 51v73q0 42 29 71t71 29h30v90h65v-90h80v-75h-175q-25 0 -25 -25v-87q0 -25 25 -25h125v-75h-125q-25 0 -25 -25v-108q0 -25 25 -25h175v-75h-80v-90h-65v90h-30q-42 0 -71 29t-29 71v93z" />
    <glyph glyph-name="dollar.2" horiz-adv-x="435" 
d="M155 313q-42 0 -71 29t-29 71v97q0 42 29 71t71 29h30v90h65v-90h120v-75h-215q-25 0 -25 -25v-97q0 -25 25 -25h125q42 0 71 -29t29 -71v-98q0 -42 -29 -71t-71 -29h-30v-90h-65v90h-120v75h215q25 0 25 25v98q0 25 -25 25h-125z" />
    <glyph glyph-name="cent.2" horiz-adv-x="360" 
d="M330 90h-80v-90h-65v90h-30q-42 0 -71 29t-29 71v320q0 42 29 71t71 29h30v90h65v-90h80v-75h-175q-25 0 -25 -25v-320q0 -25 25 -25h175v-75z" />
    <glyph glyph-name="sterling.2" horiz-adv-x="414" 
d="M31 0v75h50v245h-50v75h50v205q0 42 29 71t71 29h153v-75h-153q-25 0 -25 -25v-205h137v-75h-137v-245h228v-75h-353z" />
    <glyph glyph-name="Euro.2" horiz-adv-x="386" 
d="M31 459h50v141q0 42 29 71t71 29h175v-75h-175q-25 0 -25 -25v-141h137v-75h-137v-71h137v-75h-137v-138q0 -25 25 -25h175v-75h-175q-42 0 -71 29t-29 71v138h-50v75h50v71h-50v75z" />
    <glyph glyph-name="at.case" horiz-adv-x="574" 
d="M356 494q0 22 -22 22h-98q-22 0 -22 -22v-290q0 -22 22 -22h98q22 0 22 22v290zM428 114q-57 0 -72 45q-15 -45 -72 -45h-48q-37 0 -63.5 26.5t-26.5 63.5v290q0 37 26.5 63.5t63.5 26.5h48q58 0 72 -45v45h68v-417q0 -22 22 -22h20q22 0 22 22v309q0 42 -16 78.5
t-43 63.5t-63.5 43t-78.5 16t-78.5 -16t-63.5 -43t-43 -63.5t-16 -78.5v-252q0 -42 16 -78.5t43 -63.5t63.5 -43t78.5 -16q56 0 103 28l13 -27q-26 -15 -55 -23.5t-61 -8.5q-48 0 -90.5 18t-74 49.5t-49.5 74t-18 90.5v252q0 48 18 90t49.5 73.5t74 50t90.5 18.5t90 -18.5
t73.5 -50t50 -74t18.5 -89.5v-310q0 -23 -13 -37.5t-40 -14.5h-38z" />
    <glyph glyph-name="section.2" 
d="M123 68h97q22 0 22 22v79q0 15 -13 21l-104 47q-30 14 -50 36.5t-20 54.5v52q0 29 15.5 51.5t41.5 32.5q-34 26 -34 82v64q0 38 26 64t64 26h119v-68h-119q-22 0 -22 -22v-62q0 -8 3 -14t11 -10l120 -60q23 -11 38 -30t15 -48v-66q0 -26 -13 -47t-35 -32q14 -11 19.5 -29
t5.5 -44v-78q0 -38 -26 -64t-64 -26h-97v68zM265 378q0 4 -2.5 10t-9.5 9l-110 53q-6 3 -13 0.5t-7 -12.5v-102q0 -9 3 -13.5t12 -9.5l108 -51q7 -3 13 0.5t6 12.5v103z" />
    <glyph glyph-name="registered.2" horiz-adv-x="438" 
d="M398 529q0 -37 -14 -69.5t-38.5 -57t-57 -38.5t-69.5 -14t-69.5 14t-57 38.5t-38.5 57t-14 69.5t14 70t38.5 57.5t57 38.5t69.5 14t69.5 -14t57 -38.5t38.5 -57.5t14 -70zM374 529q0 32 -12 60.5t-33 49.5t-49.5 33t-60.5 12t-60 -12t-49 -33t-33.5 -49.5t-12.5 -60.5
t12.5 -60t33.5 -49t49 -33t60 -12t60.5 12t49.5 33t33 49t12 60zM176 501v-71h-32v199h123q28 0 28 -28v-52q0 -26 -19 -32q19 -4 19 -27v-60h-32v71h-87zM263 533v64h-87v-64h87z" />
    <glyph glyph-name="copyright.2" horiz-adv-x="797" 
d="M524 146h-210q-27 0 -45.5 19t-18.5 45v280q0 26 18.5 45t45.5 19h210v-49h-214q-12 0 -12 -11v-288q0 -11 12 -11h214v-49zM757 350q0 -74 -28.5 -139.5t-77 -114.5t-114 -77t-139.5 -28t-139.5 28t-114 77t-76.5 114.5t-28 139.5t28 139.5t76.5 114t114 77t139.5 28.5
t139.5 -28.5t114 -77t77 -114t28.5 -139.5zM69 350q0 -68 26 -128t70.5 -104.5t104.5 -70.5t128 -26t128 26t104.5 70.5t70.5 104.5t26 128t-26 128t-70.5 104.5t-104.5 70.5t-128 26t-128 -26t-104.5 -70.5t-70.5 -104.5t-26 -128z" />
    <glyph glyph-name="trademark.2" horiz-adv-x="489" 
d="M107 670v-250h-30v250h-50v30h130v-30h-50zM407 420v240q0 10 -10 10h-50q-10 0 -10 -10v-240h-30v240q0 10 -10 10h-50q-10 0 -10 -10v-240h-30v280h30v-21q5 9 14.5 15t20.5 6h25q11 0 20.5 -6t14.5 -15q5 9 14.5 15t20.5 6h30q17 0 28.5 -11.5t11.5 -28.5v-240h-30z
" />
    <glyph glyph-name="zerosuperior" horiz-adv-x="305" 
d="M200 635q0 10 -10 10h-75q-10 0 -10 -10v-290q0 -10 10 -10h75q10 0 10 10v290zM255 345q0 -29 -18 -47t-47 -18h-75q-29 0 -47 18t-18 47v290q0 29 18 47t47 18h75q29 0 47 -18t18 -47v-290z" />
    <glyph glyph-name="onesuperior.2" horiz-adv-x="207" 
d="M102 280v370h-65v50h120v-420h-55z" />
    <glyph glyph-name="twosuperior.2" horiz-adv-x="305" 
d="M50 280v158q0 29 18 47t47 18h75q10 0 10 10v122q0 10 -10 10h-75q-10 0 -10 -10v-63h-55v63q0 29 18 47t47 18h75q29 0 47 -18t18 -47v-122q0 -29 -18 -47t-47 -18h-75q-10 0 -10 -10v-103h150v-55h-205z" />
    <glyph glyph-name="twosuperior.3" horiz-adv-x="297" 
d="M50 280v185q0 29 18 47t47 18h67q10 0 10 10v95q0 10 -10 10h-122v55h122q29 0 47 -18t18 -47v-95q0 -29 -18 -47t-47 -18h-67q-10 0 -10 -10v-130h142v-55h-197z" />
    <glyph glyph-name="threesuperior.2" horiz-adv-x="290" 
d="M240 345q0 -29 -18 -47t-47 -18h-125v55h125q10 0 10 10v120q0 10 -10 10h-95v55h95q10 0 10 10v95q0 10 -10 10h-125v55h125q29 0 47 -18t18 -47v-87q0 -17 -9 -29.5t-26 -17.5q14 -4 24.5 -15t10.5 -31v-110z" />
    <glyph glyph-name="foursuperior" horiz-adv-x="294" 
d="M172 427v172l-78 -172h78zM257 372h-30v-92h-55v92h-135v51l132 277h58v-273h30v-55z" />
    <glyph glyph-name="fivesuperior" horiz-adv-x="305" 
d="M255 345q0 -29 -18 -47t-47 -18h-75q-29 0 -47 18t-18 47v48h55v-48q0 -10 10 -10h75q10 0 10 10v157q0 10 -10 10h-75q-10 0 -10 -10v-27h-55v225h205v-55h-150v-108q6 15 15 22.5t27 7.5h43q29 0 47 -18t18 -47v-157z" />
    <glyph glyph-name="fivesuperior.2" horiz-adv-x="297" 
d="M247 345q0 -29 -18 -47t-47 -18h-132v55h132q10 0 10 10v112q0 10 -10 10h-132v233h187v-55h-132v-123h77q29 0 47 -18t18 -47v-112v0z" />
    <glyph glyph-name="sixsuperior" horiz-adv-x="305" 
d="M200 465q0 10 -10 10h-75q-10 0 -10 -10v-120q0 -10 10 -10h75q10 0 10 10v120zM255 345q0 -29 -18 -47t-47 -18h-75q-29 0 -47 18t-18 47v290q0 29 18 47t47 18h75q29 0 47 -18t18 -47v-45h-55v45q0 10 -10 10h-75q-10 0 -10 -10v-135q6 15 15 22.5t27 7.5h43
q29 0 47 -18t18 -47v-120z" />
    <glyph glyph-name="sixsuperior.2" horiz-adv-x="305" 
d="M105 500q6 15 15 22.5t27 7.5h43q29 0 47 -18t18 -47v-120q0 -29 -18 -47t-47 -18h-75q-29 0 -47 18t-18 47v290q0 29 18 47t47 18h130v-55h-130q-10 0 -10 -10v-135zM200 465q0 10 -10 10h-75q-10 0 -10 -10v-120q0 -10 10 -10h75q10 0 10 10v120z" />
    <glyph glyph-name="sevensuperior" horiz-adv-x="279" 
d="M242 655l-84 -375h-61l84 365h-89v-63h-55v118h205v-45z" />
    <glyph glyph-name="sevensuperior.2" horiz-adv-x="279" 
d="M242 655l-83 -375h-62l84 365h-144v55h205v-45z" />
    <glyph glyph-name="eightsuperior" horiz-adv-x="305" 
d="M200 457q0 10 -10 10h-75q-10 0 -10 -10v-112q0 -10 10 -10h75q10 0 10 10v112zM200 635q0 10 -10 10h-75q-10 0 -10 -10v-103q0 -10 10 -10h75q10 0 10 10v103zM255 345q0 -29 -18 -47t-47 -18h-75q-29 0 -47 18t-18 47v111q0 14 9.5 27.5t25.5 18.5q-14 4 -24.5 15.5
t-10.5 30.5v87q0 29 18 47t47 18h75q29 0 47 -18t18 -47v-87q0 -14 -9.5 -27.5t-25.5 -18.5q14 -4 24.5 -15.5t10.5 -30.5v-111z" />
    <glyph glyph-name="ninesuperior" horiz-adv-x="305" 
d="M105 515q0 -10 10 -10h75q10 0 10 10v120q0 10 -10 10h-75q-10 0 -10 -10v-120zM50 635q0 29 18 47t47 18h75q29 0 47 -18t18 -47v-290q0 -29 -18 -47t-47 -18h-75q-29 0 -47 18t-18 47v53h55v-53q0 -10 10 -10h75q10 0 10 10v135q-6 -15 -15 -22.5t-27 -7.5h-43
q-29 0 -47 18t-18 47v120z" />
    <glyph glyph-name="ninesuperior.2" horiz-adv-x="305" 
d="M105 515q0 -10 10 -10h75q10 0 10 10v120q0 10 -10 10h-75q-10 0 -10 -10v-120zM115 450q-29 0 -47 18t-18 47v120q0 29 18 47t47 18h75q29 0 47 -18t18 -47v-290q0 -29 -18 -47t-47 -18h-125v55h125q10 0 10 10v135q-6 -15 -15 -22.5t-27 -7.5h-43z" />
    <glyph glyph-name="fraction" horiz-adv-x="74" 
d="M179 700l-232 -700h-53l232 700h53z" />
    <glyph glyph-name="zero.dnom" horiz-adv-x="305" 
d="M200 355q0 10 -10 10h-75q-10 0 -10 -10v-290q0 -10 10 -10h75q10 0 10 10v290zM255 65q0 -29 -18 -47t-47 -18h-75q-29 0 -47 18t-18 47v290q0 29 18 47t47 18h75q29 0 47 -18t18 -47v-290z" />
    <glyph glyph-name="one.dnom" horiz-adv-x="259" 
d="M222 0h-185v55h65v310h-65v55h120v-365h65v-55z" />
    <glyph glyph-name="one.2.dnom" horiz-adv-x="207" 
d="M102 0v370h-65v50h120v-420h-55z" />
    <glyph glyph-name="two.dnom" horiz-adv-x="305" 
d="M105 55h145v-55h-200v80q0 31 17 53l128 163q5 6 5 20v39q0 10 -10 10h-75q-10 0 -10 -10v-54h-55v54q0 29 18 47t47 18h75q29 0 47 -18t18 -47v-39q0 -31 -17 -53l-128 -163q-5 -6 -5 -20v-25z" />
    <glyph glyph-name="two.2.dnom" horiz-adv-x="305" 
d="M50 0v158q0 29 18 47t47 18h75q10 0 10 10v122q0 10 -10 10h-75q-10 0 -10 -10v-63h-55v63q0 29 18 47t47 18h75q29 0 47 -18t18 -47v-122q0 -29 -18 -47t-47 -18h-75q-10 0 -10 -10v-103h150v-55h-205z" />
    <glyph glyph-name="two.3.dnom" horiz-adv-x="297" 
d="M50 0v185q0 29 18 47t47 18h67q10 0 10 10v95q0 10 -10 10h-122v55h122q29 0 47 -18t18 -47v-95q0 -29 -18 -47t-47 -18h-67q-10 0 -10 -10v-130h142v-55h-197z" />
    <glyph glyph-name="three.dnom" horiz-adv-x="305" 
d="M255 65q0 -29 -18 -47t-47 -18h-75q-29 0 -47 18t-18 47v40h55v-40q0 -10 10 -10h75q10 0 10 10v120q0 10 -10 10h-90v55h90q10 0 10 10v95q0 10 -10 10h-75q-10 0 -10 -10v-40h-55v40q0 29 18 47t47 18h75q29 0 47 -18t18 -47v-87q0 -17 -9 -29.5t-26 -17.5
q14 -4 24.5 -15t10.5 -31v-110z" />
    <glyph glyph-name="three.2.dnom" horiz-adv-x="290" 
d="M240 65q0 -29 -18 -47t-47 -18h-125v55h125q10 0 10 10v120q0 10 -10 10h-95v55h95q10 0 10 10v95q0 10 -10 10h-125v55h125q29 0 47 -18t18 -47v-87q0 -17 -9 -29.5t-26 -17.5q14 -4 24.5 -15t10.5 -31v-110z" />
    <glyph glyph-name="four.dnom" horiz-adv-x="294" 
d="M172 147v172l-78 -172h78zM257 92h-30v-92h-55v92h-135v51l132 277h58v-273h30v-55z" />
    <glyph glyph-name="five.dnom" horiz-adv-x="305" 
d="M255 65q0 -29 -18 -47t-47 -18h-75q-29 0 -47 18t-18 47v48h55v-48q0 -10 10 -10h75q10 0 10 10v157q0 10 -10 10h-75q-10 0 -10 -10v-27h-55v225h205v-55h-150v-108q6 15 15 22.5t27 7.5h43q29 0 47 -18t18 -47v-157z" />
    <glyph glyph-name="five.2.dnom" horiz-adv-x="297" 
d="M247 65q0 -29 -18 -47t-47 -18h-132v55h132q10 0 10 10v112q0 10 -10 10h-132v233h187v-55h-132v-123h77q29 0 47 -18t18 -47v-112v0z" />
    <glyph glyph-name="six.dnom" horiz-adv-x="305" 
d="M200 185q0 10 -10 10h-75q-10 0 -10 -10v-120q0 -10 10 -10h75q10 0 10 10v120zM255 65q0 -29 -18 -47t-47 -18h-75q-29 0 -47 18t-18 47v290q0 29 18 47t47 18h75q29 0 47 -18t18 -47v-45h-55v45q0 10 -10 10h-75q-10 0 -10 -10v-135q6 15 15 22.5t27 7.5h43
q29 0 47 -18t18 -47v-120z" />
    <glyph glyph-name="six.2.dnom" horiz-adv-x="305" 
d="M105 220q6 15 15 22.5t27 7.5h43q29 0 47 -18t18 -47v-120q0 -29 -18 -47t-47 -18h-75q-29 0 -47 18t-18 47v290q0 29 18 47t47 18h130v-55h-130q-10 0 -10 -10v-135zM200 185q0 10 -10 10h-75q-10 0 -10 -10v-120q0 -10 10 -10h75q10 0 10 10v120z" />
    <glyph glyph-name="seven.dnom" horiz-adv-x="279" 
d="M242 375l-84 -375h-61l84 365h-89v-63h-55v118h205v-45z" />
    <glyph glyph-name="seven.2.dnom" horiz-adv-x="279" 
d="M242 375l-83 -375h-62l84 365h-144v55h205v-45z" />
    <glyph glyph-name="eight.dnom" horiz-adv-x="305" 
d="M200 177q0 10 -10 10h-75q-10 0 -10 -10v-112q0 -10 10 -10h75q10 0 10 10v112zM200 355q0 10 -10 10h-75q-10 0 -10 -10v-103q0 -10 10 -10h75q10 0 10 10v103zM255 65q0 -29 -18 -47t-47 -18h-75q-29 0 -47 18t-18 47v111q0 14 9.5 27.5t25.5 18.5q-14 4 -24.5 15.5
t-10.5 30.5v87q0 29 18 47t47 18h75q29 0 47 -18t18 -47v-87q0 -14 -9.5 -27.5t-25.5 -18.5q14 -4 24.5 -15.5t10.5 -30.5v-111z" />
    <glyph glyph-name="nine.dnom" horiz-adv-x="305" 
d="M105 235q0 -10 10 -10h75q10 0 10 10v120q0 10 -10 10h-75q-10 0 -10 -10v-120zM50 355q0 29 18 47t47 18h75q29 0 47 -18t18 -47v-290q0 -29 -18 -47t-47 -18h-75q-29 0 -47 18t-18 47v53h55v-53q0 -10 10 -10h75q10 0 10 10v135q-6 -15 -15 -22.5t-27 -7.5h-43
q-29 0 -47 18t-18 47v120z" />
    <glyph glyph-name="nine.2.dnom" horiz-adv-x="305" 
d="M105 235q0 -10 10 -10h75q10 0 10 10v120q0 10 -10 10h-75q-10 0 -10 -10v-120zM115 170q-29 0 -47 18t-18 47v120q0 29 18 47t47 18h75q29 0 47 -18t18 -47v-290q0 -29 -18 -47t-47 -18h-125v55h125q10 0 10 10v135q-6 -15 -15 -22.5t-27 -7.5h-43z" />
    <glyph glyph-name="onehalf.2" horiz-adv-x="586" 
d="M37 0zM102 280v370h-65v50h120v-420h-55zM386 700l-232 -700h-53l232 700h53zM331 0v158q0 29 18 47t47 18h75q10 0 10 10v122q0 10 -10 10h-75q-10 0 -10 -10v-63h-55v63q0 29 18 47t47 18h75q29 0 47 -18t18 -47v-122q0 -29 -18 -47t-47 -18h-75q-10 0 -10 -10v-103
h150v-55h-205z" />
    <glyph glyph-name="onehalf.3" horiz-adv-x="598" 
d="M37 0zM102 280v370h-65v50h120v-420h-55zM406 700l-232 -700h-53l232 700h53zM351 0v185q0 29 18 47t47 18h67q10 0 10 10v95q0 10 -10 10h-122v55h122q29 0 47 -18t18 -47v-95q0 -29 -18 -47t-47 -18h-67q-10 0 -10 -10v-130h142v-55h-197z" />
    <glyph glyph-name="onequarter.2" horiz-adv-x="535" 
d="M37 0zM102 280v370h-65v50h120v-420h-55zM386 700l-232 -700h-53l232 700h53zM413 147v172l-78 -172h78zM498 92h-30v-92h-55v92h-135v51l132 277h58v-273h30v-55z" />
    <glyph glyph-name="threequarters.2" horiz-adv-x="618" 
d="M50 0zM240 345q0 -29 -18 -47t-47 -18h-125v55h125q10 0 10 10v120q0 10 -10 10h-95v55h95q10 0 10 10v95q0 10 -10 10h-125v55h125q29 0 47 -18t18 -47v-87q0 -17 -9 -29.5t-26 -17.5q14 -4 24.5 -15t10.5 -31v-110zM469 700l-232 -700h-53l232 700h53zM496 147v172
l-78 -172h78zM581 92h-30v-92h-55v92h-135v51l132 277h58v-273h30v-55z" />
    <glyph glyph-name="zeroinferior" horiz-adv-x="305" 
d="M200 205q0 10 -10 10h-75q-10 0 -10 -10v-290q0 -10 10 -10h75q10 0 10 10v290zM255 -85q0 -29 -18 -47t-47 -18h-75q-29 0 -47 18t-18 47v290q0 29 18 47t47 18h75q29 0 47 -18t18 -47v-290z" />
    <glyph glyph-name="oneinferior" horiz-adv-x="259" 
d="M222 -150h-185v55h65v310h-65v55h120v-365h65v-55z" />
    <glyph glyph-name="oneinferior.2" horiz-adv-x="207" 
d="M102 -150v370h-65v50h120v-420h-55z" />
    <glyph glyph-name="twoinferior" horiz-adv-x="305" 
d="M105 -95h145v-55h-200v80q0 31 17 53l128 163q5 6 5 20v39q0 10 -10 10h-75q-10 0 -10 -10v-54h-55v54q0 29 18 47t47 18h75q29 0 47 -18t18 -47v-39q0 -31 -17 -53l-128 -163q-5 -6 -5 -20v-25z" />
    <glyph glyph-name="twoinferior.2" horiz-adv-x="305" 
d="M50 -150v158q0 29 18 47t47 18h75q10 0 10 10v122q0 10 -10 10h-75q-10 0 -10 -10v-63h-55v63q0 29 18 47t47 18h75q29 0 47 -18t18 -47v-122q0 -29 -18 -47t-47 -18h-75q-10 0 -10 -10v-103h150v-55h-205z" />
    <glyph glyph-name="twoinferior.3" horiz-adv-x="297" 
d="M50 -150v185q0 29 18 47t47 18h67q10 0 10 10v95q0 10 -10 10h-122v55h122q29 0 47 -18t18 -47v-95q0 -29 -18 -47t-47 -18h-67q-10 0 -10 -10v-130h142v-55h-197z" />
    <glyph glyph-name="threeinferior" horiz-adv-x="305" 
d="M255 -85q0 -29 -18 -47t-47 -18h-75q-29 0 -47 18t-18 47v40h55v-40q0 -10 10 -10h75q10 0 10 10v120q0 10 -10 10h-90v55h90q10 0 10 10v95q0 10 -10 10h-75q-10 0 -10 -10v-40h-55v40q0 29 18 47t47 18h75q29 0 47 -18t18 -47v-87q0 -17 -9 -29.5t-26 -17.5
q14 -4 24.5 -15t10.5 -31v-110z" />
    <glyph glyph-name="threeinferior.2" horiz-adv-x="290" 
d="M240 -85q0 -29 -18 -47t-47 -18h-125v55h125q10 0 10 10v120q0 10 -10 10h-95v55h95q10 0 10 10v95q0 10 -10 10h-125v55h125q29 0 47 -18t18 -47v-87q0 -17 -9 -29.5t-26 -17.5q14 -4 24.5 -15t10.5 -31v-110z" />
    <glyph glyph-name="fourinferior" horiz-adv-x="294" 
d="M172 -3v172l-78 -172h78zM257 -58h-30v-92h-55v92h-135v51l132 277h58v-273h30v-55z" />
    <glyph glyph-name="fiveinferior" horiz-adv-x="305" 
d="M255 -85q0 -29 -18 -47t-47 -18h-75q-29 0 -47 18t-18 47v48h55v-48q0 -10 10 -10h75q10 0 10 10v157q0 10 -10 10h-75q-10 0 -10 -10v-27h-55v225h205v-55h-150v-108q6 15 15 22.5t27 7.5h43q29 0 47 -18t18 -47v-157z" />
    <glyph glyph-name="fiveinferior.2" horiz-adv-x="297" 
d="M247 -85q0 -29 -18 -47t-47 -18h-132v55h132q10 0 10 10v112q0 10 -10 10h-132v233h187v-55h-132v-123h77q29 0 47 -18t18 -47v-112v0z" />
    <glyph glyph-name="sixinferior" horiz-adv-x="305" 
d="M200 35q0 10 -10 10h-75q-10 0 -10 -10v-120q0 -10 10 -10h75q10 0 10 10v120zM255 -85q0 -29 -18 -47t-47 -18h-75q-29 0 -47 18t-18 47v290q0 29 18 47t47 18h75q29 0 47 -18t18 -47v-45h-55v45q0 10 -10 10h-75q-10 0 -10 -10v-135q6 15 15 22.5t27 7.5h43
q29 0 47 -18t18 -47v-120z" />
    <glyph glyph-name="sixinferior.2" horiz-adv-x="305" 
d="M105 70q6 15 15 22.5t27 7.5h43q29 0 47 -18t18 -47v-120q0 -29 -18 -47t-47 -18h-75q-29 0 -47 18t-18 47v290q0 29 18 47t47 18h130v-55h-130q-10 0 -10 -10v-135zM200 35q0 10 -10 10h-75q-10 0 -10 -10v-120q0 -10 10 -10h75q10 0 10 10v120z" />
    <glyph glyph-name="seveninferior" horiz-adv-x="279" 
d="M242 225l-84 -375h-61l84 365h-89v-63h-55v118h205v-45z" />
    <glyph glyph-name="seveninferior.2" horiz-adv-x="279" 
d="M242 225l-83 -375h-62l84 365h-144v55h205v-45z" />
    <glyph glyph-name="eightinferior" horiz-adv-x="305" 
d="M200 27q0 10 -10 10h-75q-10 0 -10 -10v-112q0 -10 10 -10h75q10 0 10 10v112zM200 205q0 10 -10 10h-75q-10 0 -10 -10v-103q0 -10 10 -10h75q10 0 10 10v103zM255 -85q0 -29 -18 -47t-47 -18h-75q-29 0 -47 18t-18 47v111q0 14 9.5 27.5t25.5 18.5q-14 4 -24.5 15.5
t-10.5 30.5v87q0 29 18 47t47 18h75q29 0 47 -18t18 -47v-87q0 -14 -9.5 -27.5t-25.5 -18.5q14 -4 24.5 -15.5t10.5 -30.5v-111z" />
    <glyph glyph-name="nineinferior" horiz-adv-x="305" 
d="M105 85q0 -10 10 -10h75q10 0 10 10v120q0 10 -10 10h-75q-10 0 -10 -10v-120zM50 205q0 29 18 47t47 18h75q29 0 47 -18t18 -47v-290q0 -29 -18 -47t-47 -18h-75q-29 0 -47 18t-18 47v53h55v-53q0 -10 10 -10h75q10 0 10 10v135q-6 -15 -15 -22.5t-27 -7.5h-43
q-29 0 -47 18t-18 47v120z" />
    <glyph glyph-name="nineinferior.2" horiz-adv-x="305" 
d="M200 50q-6 -15 -15 -22.5t-27 -7.5h-43q-29 0 -47 18t-18 47v120q0 29 18 47t47 18h75q29 0 47 -18t18 -47v-290q0 -29 -18 -47t-47 -18h-125v55h125q10 0 10 10v135zM105 85q0 -10 10 -10h75q10 0 10 10v120q0 10 -10 10h-75q-10 0 -10 -10v-120z" />
    <glyph glyph-name="multiply.case" horiz-adv-x="461" 
d="M397 469l-120 -119l118 -117l-48 -48l-117 117l-116 -116l-48 48l116 116l-118 118l48 48l118 -118l119 119z" />
    <glyph glyph-name="plus.case" horiz-adv-x="460" 
d="M430 317h-169v-166h-67v166h-164v67h164v167h67v-167h169v-67z" />
    <glyph glyph-name="less.case" horiz-adv-x="460" 
d="M99 349l331 -135v-72l-400 163v89l400 163v-72z" />
    <glyph glyph-name="equal.case" horiz-adv-x="460" 
d="M430 227h-400v67h400v-67zM430 407h-400v67h400v-67z" />
    <glyph glyph-name="greater.case" horiz-adv-x="460" 
d="M30 214l331 135l-331 136v72l400 -163v-89l-400 -163v72z" />
    <glyph glyph-name="plusminus.case" horiz-adv-x="460" 
d="M30 182h164v146h-164v67h164v167h67v-167h169v-67h-169v-146h169v-67h-400v67z" />
    <glyph glyph-name="logicalnot.case" horiz-adv-x="460" 
d="M430 227h-67v180h-333v67h400v-247z" />
    <glyph glyph-name="divide.case" horiz-adv-x="460" 
d="M30 317v67h400v-67h-400zM177 180q0 21 14.5 35.5t35.5 14.5t35.5 -14.5t14.5 -35.5t-14.5 -35.5t-35.5 -14.5t-35.5 14.5t-14.5 35.5zM177 520q0 21 14.5 35.5t35.5 14.5t35.5 -14.5t14.5 -35.5t-14.5 -35.5t-35.5 -14.5t-35.5 14.5t-14.5 35.5z" />
    <glyph glyph-name="circumflex" 
d="M315 564l-36 -36l-85 86l-85 -86l-36 36l121 120z" />
    <glyph glyph-name="ring" 
d="M272 597q0 -32 -22.5 -55t-54.5 -23t-55 23t-23 55t23 54.5t55 22.5t54.5 -22.5t22.5 -54.5zM154 597q0 -17 12 -29t29 -12t29 12t12 29t-12 29t-29 12t-29 -12t-12 -29z" />
    <glyph glyph-name=".ttfautohint" horiz-adv-x="271" 
d="M0 0z" />
    </font>
</defs>
</svg>
